<svg width="28" height="24" viewBox="0 0 28 24" fill="none" xmlns="http://www.w3.org/2000/svg">
<path d="M0 12.9677L2.76082 9.99099L9.38497 16.5436C10.7062 15.2468 16.3918 9.63733 20.6378 5.44249C23.508 2.61318 25.7859 0.363488 25.8952 0.255424L26.1595 0L28 1.98445L27.7631 2.26934C27.3804 2.73107 23.262 7.59394 18.8975 12.7417C14.5513 17.8698 10.0683 23.1748 9.6492 23.666L9.37585 24L0 12.9677Z" fill="#003832"/>
<path d="M0 12.9677L2.76082 9.99099L9.38497 16.5436C10.7062 15.2468 16.3918 9.63733 20.6378 5.44249C23.508 2.61318 25.7859 0.363488 25.8952 0.255424L26.1595 0L28 1.98445L27.7631 2.26934C27.3804 2.73107 23.262 7.59394 18.8975 12.7417C14.5513 17.8698 10.0683 23.1748 9.6492 23.666L9.37585 24L0 12.9677Z" fill="#00957E"/>
<path d="M0 12.9677L2.76082 9.99099L9.38497 16.5436C10.7062 15.2468 16.3918 9.63733 20.6378 5.44249C23.508 2.61318 25.7859 0.363488 25.8952 0.255424L26.1595 0L28 1.98445L27.7631 2.26934C27.3804 2.73107 23.262 7.59394 18.8975 12.7417C14.5513 17.8698 10.0683 23.1748 9.6492 23.666L9.37585 24L0 12.9677Z" fill="#008C95"/>
<path d="M0 12.9677L2.76082 9.99099L9.38497 16.5436C10.7062 15.2468 16.3918 9.63733 20.6378 5.44249C23.508 2.61318 25.7859 0.363488 25.8952 0.255424L26.1595 0L28 1.98445L27.7631 2.26934C27.3804 2.73107 23.262 7.59394 18.8975 12.7417C14.5513 17.8698 10.0683 23.1748 9.6492 23.666L9.37585 24L0 12.9677Z" fill="#24C9D3"/>
</svg>
