<svg width="104" height="104" viewBox="0 0 104 104" fill="none" xmlns="http://www.w3.org/2000/svg">
<g filter="url(#filter0_d)">
<circle cx="52" cy="50" r="40" fill="#FFFC00"/>
</g>
<g clip-path="url(#clip0)">
<path d="M71.4285 50.4724C71.4285 49.074 71.3192 47.6681 71.0862 46.2924H52.3896V54.214H63.0962C62.6519 56.7689 61.2244 59.029 59.134 60.4652V65.6052H65.5216C69.2726 62.0223 71.4285 56.7311 71.4285 50.4724Z" fill="#4285F4"/>
<path d="M52.389 70.5714C57.735 70.5714 62.2435 68.7497 65.5283 65.6052L59.1407 60.4652C57.3636 61.72 55.0693 62.4305 52.3963 62.4305C47.225 62.4305 42.8404 58.8098 41.2672 53.9419H34.6757V59.2407C38.0406 66.1872 44.8943 70.5714 52.389 70.5714Z" fill="#34A853"/>
<path d="M41.2597 53.9419C40.4294 51.387 40.4294 48.6205 41.2597 46.0656V40.7668H34.6755C31.8641 46.5796 31.8641 53.4279 34.6755 59.2407L41.2597 53.9419Z" fill="#FBBC04"/>
<path d="M52.389 37.5695C55.215 37.5242 57.9462 38.6278 59.9929 40.6535L65.6521 34.7803C62.0687 31.2881 57.3126 29.3682 52.389 29.4286C44.8943 29.4286 38.0406 33.8128 34.6757 40.7669L41.2599 46.0657C42.8258 41.1902 47.2177 37.5695 52.389 37.5695Z" fill="#EA4335"/>
</g>
<g clip-path="url(#clip1)">
<path d="M31 60.3173V60.3192C31.0252 61.2515 31.0329 62.1893 31.1903 63.1159C31.3571 64.0962 31.5955 65.0521 32.0503 65.9419C32.6653 67.1461 33.5098 68.1631 34.5758 68.9938C35.3412 69.5903 36.1773 70.0638 37.1029 70.3625C38.4525 70.7975 39.8448 70.9643 41.2574 70.9724C42.1388 70.978 43.0196 71 43.9013 70.9963C50.3042 70.9694 56.7073 71.0425 63.1104 70.9568C63.9601 70.9453 64.7959 70.8418 65.6298 70.6894C67.2281 70.3971 68.6407 69.7156 69.8492 68.6382C71.2577 67.383 72.208 65.8467 72.637 63.9926C72.9177 62.7806 72.9879 61.5511 72.9999 60.3172V60.071C72.9999 59.9755 72.9636 39.1056 72.9602 38.8297C72.9508 38.072 72.895 37.3199 72.7528 36.5743C72.5799 35.6657 72.3356 34.7804 71.9002 33.9584C71.4404 33.09 70.8645 32.3091 70.1522 31.6268C69.0611 30.5813 67.802 29.842 66.3362 29.4509C65.0122 29.0978 63.6616 29.0196 62.301 29.0208C62.2988 29.0205 62.2937 29.0067 62.2933 29H41.7C41.6996 29.007 41.6994 29.014 41.6989 29.0208C40.9267 29.0349 40.1534 29.0291 39.3852 29.1243C38.5436 29.2288 37.7101 29.3863 36.9135 29.6802C35.6588 30.144 34.5687 30.8662 33.6375 31.8305C32.5825 32.9229 31.8389 34.1864 31.4443 35.6576C31.0923 36.9702 31.0157 38.309 31.0138 39.6572" fill="#FFFC00"/>
<path d="M52.2267 67C52.1246 67 52.0273 66.9963 51.9532 66.9927C51.8945 66.9978 51.8338 67 51.7731 67C49.6295 67 48.1963 65.9806 46.9316 65.0805C46.025 64.4362 45.1701 63.8281 44.1685 63.6605C43.6766 63.5784 43.1873 63.5368 42.7145 63.5368C41.8626 63.5368 41.1894 63.6697 40.6978 63.7664C40.3954 63.8257 40.1346 63.8767 39.933 63.8767C39.7219 63.8767 39.4653 63.8296 39.3584 63.4624C39.2737 63.1727 39.2129 62.8921 39.1543 62.6218C39.0075 61.9465 38.9011 61.5343 38.6498 61.4952C35.9613 61.0779 34.3729 60.4632 34.0565 59.7187C34.0233 59.6405 34.0048 59.5618 34.0007 59.4839C33.9884 59.262 34.1441 59.0674 34.3615 59.0312C36.4965 58.6775 38.3949 57.5423 40.0042 55.656C41.2508 54.1957 41.863 52.8004 41.9287 52.6463C41.9316 52.6394 41.9349 52.6321 41.9384 52.6255C42.2486 51.9923 42.3103 51.4452 42.1224 50.9997C41.7759 50.1779 40.6287 49.8117 39.8697 49.5694C39.6809 49.5094 39.5023 49.4525 39.3601 49.3957C38.6872 49.1283 37.5806 48.5634 37.7281 47.7837C37.8354 47.2151 38.583 46.8191 39.1872 46.8191C39.3549 46.8191 39.5036 46.8487 39.6287 46.9079C40.3114 47.2296 40.9256 47.3927 41.4538 47.3927C42.1107 47.3927 42.428 47.1411 42.5047 47.0696C42.4858 46.7171 42.4626 46.3444 42.4403 45.9919C42.4403 45.9915 42.4398 45.9872 42.4398 45.9872C42.2856 43.5197 42.0933 40.4489 42.8741 38.6879C45.2111 33.4167 50.1671 33.0068 51.6299 33.0068C51.6689 33.0068 52.2675 33.0009 52.2675 33.0009C52.2946 33.0004 52.3239 33 52.3543 33C53.8211 33 58.7875 33.4104 61.1259 38.6847C61.9067 40.4469 61.7142 43.5203 61.5595 45.9904L61.5522 46.1086C61.531 46.444 61.5115 46.7615 61.4949 47.0692C61.5672 47.1361 61.8575 47.3668 62.4482 47.3901C62.9517 47.3707 63.5304 47.2084 64.1676 46.9082C64.3646 46.8152 64.5827 46.7959 64.7308 46.7959C64.9546 46.7959 65.1824 46.8397 65.3722 46.9194L65.3823 46.9233C65.923 47.1164 66.2772 47.5023 66.2848 47.9077C66.2916 48.2855 66.0125 48.8504 64.6395 49.3959C64.4988 49.4519 64.3194 49.5092 64.1299 49.5696C63.3702 49.8122 62.2239 50.1782 61.8774 50.9995C61.6892 51.445 61.7512 51.9919 62.0615 52.6249C62.0649 52.6318 62.0679 52.6388 62.0712 52.6461C62.1667 52.8714 64.4791 58.1756 69.6384 59.0307C69.8557 59.0671 70.0117 59.2619 69.9993 59.4835C69.9947 59.563 69.9756 59.6426 69.9422 59.7204C69.628 60.4607 68.0396 61.0745 65.3504 61.4924C65.098 61.5316 64.9917 61.942 64.8463 62.6138C64.7861 62.8912 64.7249 63.1632 64.6413 63.449C64.563 63.7178 64.389 63.8492 64.1094 63.8492H64.0673C63.8853 63.8492 63.6275 63.816 63.3023 63.752C62.7338 63.6407 62.0963 63.5371 61.2856 63.5371C60.8129 63.5371 60.3237 63.5788 59.8312 63.6608C58.8307 63.8284 57.9758 64.4356 57.0709 65.0791C55.8037 65.9805 54.37 67 52.2267 67Z" fill="white"/>
<path d="M52.3461 33.847C53.6947 33.847 58.3386 34.2109 60.5271 39.1392C61.2477 40.762 61.063 43.7017 60.9148 46.0632C60.8917 46.438 60.8687 46.8012 60.85 47.1481L60.8422 47.2972L60.9413 47.4082C60.9813 47.4528 61.3559 47.846 62.189 47.8784L62.2025 47.8791L62.2165 47.8788C62.7673 47.8578 63.3877 47.6859 64.0615 47.3688C64.1607 47.3222 64.2929 47.2994 64.4326 47.2994C64.5919 47.2994 64.7611 47.3295 64.9007 47.3885L64.9218 47.397C65.2751 47.5213 65.5248 47.7558 65.5286 47.968C65.5307 48.0879 65.4414 48.52 64.189 49.017C64.0666 49.0655 63.9055 49.1172 63.7187 49.1763C62.9037 49.4363 61.6724 49.8286 61.2579 50.8095C61.0246 51.362 61.0885 52.014 61.4477 52.7473C61.5955 53.0937 63.9219 58.3574 69.1568 59.2239C69.1558 59.2488 69.1495 59.2761 69.1355 59.3083C69.0467 59.5182 68.4828 60.2434 64.9734 60.7873C64.4242 60.8719 64.2897 61.4902 64.1337 62.209C64.0773 62.4663 64.0201 62.7261 63.9413 62.9944C63.9172 63.0755 63.9128 63.08 63.8263 63.08C63.8143 63.08 63.8003 63.08 63.785 63.08C63.6294 63.08 63.3932 63.0476 63.1194 62.9936C62.6207 62.8961 61.9395 62.7764 61.0686 62.7764C60.5825 62.7764 60.0818 62.8189 59.5794 62.9031C58.5054 63.0825 57.6321 63.703 56.7072 64.3597C55.465 65.2414 54.1812 66.1537 52.2223 66.1537C52.1368 66.1537 52.0533 66.1508 51.9696 66.1465L51.9476 66.1456L51.9255 66.1473C51.8774 66.1515 51.829 66.1537 51.7796 66.1537C49.821 66.1537 48.5366 65.2416 47.295 64.3597C46.3699 63.703 45.4961 63.0825 44.4223 62.9031C43.9204 62.8191 43.4192 62.7764 42.9334 62.7764C42.0627 62.7764 41.3806 62.9102 40.883 63.008C40.6092 63.0618 40.3721 63.1079 40.2169 63.1079C40.0899 63.1079 40.0874 63.1004 40.0606 63.0082C39.9818 62.7397 39.9243 62.4737 39.8682 62.2168C39.7118 61.4972 39.5772 60.8755 39.0284 60.7909C35.5192 60.2465 34.9552 59.5201 34.8661 59.3107C34.8522 59.2777 34.846 59.2496 34.8446 59.2247C40.0794 58.3589 42.4054 53.095 42.5536 52.7473C42.9135 52.0146 42.9773 51.3626 42.7432 50.8095C42.3288 49.8291 41.0977 49.4363 40.2832 49.1768C40.0959 49.1173 39.9347 49.0655 39.8122 49.017C38.7546 48.5972 38.4293 48.1744 38.4776 47.9182C38.5337 47.6227 39.0437 47.3223 39.4887 47.3223C39.5887 47.3223 39.6764 47.3385 39.7412 47.3689C40.464 47.7092 41.1238 47.8817 41.7025 47.8817C42.6122 47.8817 43.0171 47.4566 43.0606 47.408L43.1592 47.2973L43.1513 47.1489C43.1329 46.8023 43.1102 46.4391 43.0863 46.0651C42.9387 43.703 42.7539 40.7653 43.4743 39.1424C45.6546 34.2321 50.2758 33.8536 51.64 33.8536C51.6736 33.8536 52.2667 33.8475 52.2667 33.8475C52.2909 33.8474 52.3179 33.847 52.3461 33.847ZM52.3461 33H52.3446C52.3135 33 52.2843 33 52.2565 33.0004C52.0348 33.0026 51.6704 33.0062 51.6377 33.0066C50.8385 33.0066 49.2395 33.12 47.5219 33.8815C46.5399 34.3166 45.6566 34.9049 44.8966 35.6302C43.9905 36.4943 43.2523 37.5597 42.703 38.7973C41.8985 40.6094 42.0895 43.6615 42.2429 46.1143L42.2434 46.1181C42.2598 46.3808 42.2771 46.6551 42.2929 46.9224C42.1748 46.9768 41.9835 47.0343 41.7015 47.0343C41.2477 47.0343 40.7081 46.8886 40.098 46.6014C39.9185 46.5175 39.7136 46.475 39.4876 46.475C39.1244 46.475 38.7415 46.5824 38.4093 46.7785C37.9915 47.025 37.7215 47.3733 37.6481 47.7595C37.5998 48.015 37.6021 48.5199 38.1605 49.032C38.4676 49.3139 38.9188 49.5738 39.5012 49.805C39.654 49.8655 39.8354 49.9232 40.0275 49.9844C40.6941 50.1972 41.703 50.5188 41.966 51.1407C42.0994 51.4561 42.042 51.871 41.796 52.3726C41.7895 52.3863 41.7831 52.3997 41.7772 52.4137C41.7157 52.558 41.1422 53.863 39.9656 55.2394C39.297 56.0221 38.5607 56.6762 37.7781 57.1841C36.8229 57.8042 35.7894 58.2097 34.7065 58.3888C34.2813 58.4589 33.9776 58.8395 34.0013 59.272C34.0086 59.3966 34.0377 59.5209 34.0882 59.6411C34.0885 59.6419 34.089 59.6426 34.0894 59.6433C34.2613 60.0473 34.66 60.3905 35.3081 60.6932C36.1001 61.0627 37.2846 61.3735 38.8283 61.6167C38.9063 61.7657 38.9873 62.1402 39.0434 62.3966C39.1021 62.6691 39.1633 62.9493 39.2505 63.247C39.3446 63.5694 39.5888 63.9548 40.216 63.9548C40.4537 63.9548 40.7271 63.901 41.0436 63.8393C41.5072 63.7479 42.1412 63.6233 42.9324 63.6233C43.3711 63.6233 43.8257 63.6621 44.2833 63.7385C45.1654 63.886 45.9259 64.4256 46.8058 65.0505C48.0936 65.9649 49.5514 67 51.7786 67C51.8394 67 51.9003 66.998 51.9605 66.9938C52.0341 66.9973 52.1253 67 52.2216 67C54.4495 67 55.9069 65.9646 57.1933 65.0508L57.1954 65.049C58.0754 64.4248 58.835 63.886 59.7169 63.7385C60.1743 63.6622 60.6288 63.6233 61.0677 63.6233C61.8236 63.6233 62.4221 63.7201 62.9565 63.8248C63.3052 63.8938 63.5762 63.9269 63.7842 63.9269L63.8045 63.9273H63.8256C64.2844 63.9273 64.6214 63.6744 64.7501 63.2318C64.8356 62.9404 64.8966 62.6668 64.9567 62.3897C65.0092 62.1494 65.093 61.7642 65.1709 61.6136C66.7157 61.37 67.8998 61.0598 68.6918 60.6903C69.3385 60.3891 69.7367 60.0463 69.9096 59.6439C69.9615 59.5233 69.9918 59.3983 69.9986 59.2711C70.023 58.8393 69.7188 58.458 69.2933 58.3879C64.4807 57.5911 62.3126 52.6239 62.2229 52.4129C62.2171 52.399 62.2106 52.3853 62.2038 52.3718C61.9577 51.8701 61.9009 51.4556 62.0343 51.1397C62.2969 50.5183 63.3051 50.1968 63.9722 49.984C64.1653 49.9229 64.3473 49.8648 64.4989 49.8047C65.1556 49.5441 65.625 49.2615 65.9347 48.9405C66.3045 48.5579 66.3765 48.1913 66.372 47.9514C66.3608 47.3709 65.919 46.8551 65.2163 46.6025C64.979 46.504 64.7083 46.452 64.4327 46.452C64.2451 46.452 63.9672 46.4778 63.7042 46.6011C63.1412 46.8658 62.6369 47.0105 62.2039 47.0311C61.9736 47.0194 61.8121 46.9693 61.7075 46.9214C61.7207 46.695 61.7352 46.4624 61.7503 46.2198L61.7565 46.116C61.9107 43.6616 62.1024 40.6071 61.2975 38.7938C60.7458 37.5518 60.0051 36.4836 59.0953 35.6176C58.3324 34.8919 57.4461 34.3037 56.4605 33.8688C54.7453 33.1129 53.1464 33 52.3461 33Z" fill="#020202"/>
</g>
<defs>
<filter id="filter0_d" x="0" y="0" width="104" height="104" filterUnits="userSpaceOnUse" color-interpolation-filters="sRGB">
<feFlood flood-opacity="0" result="BackgroundImageFix"/>
<feColorMatrix in="SourceAlpha" type="matrix" values="0 0 0 0 0 0 0 0 0 0 0 0 0 0 0 0 0 0 127 0"/>
<feOffset dy="2"/>
<feGaussianBlur stdDeviation="6"/>
<feColorMatrix type="matrix" values="0 0 0 0 0.0295189 0 0 0 0 0.137798 0 0 0 0 0.187773 0 0 0 0.2 0"/>
<feBlend mode="multiply" in2="BackgroundImageFix" result="effect1_dropShadow"/>
<feBlend mode="normal" in="SourceGraphic" in2="effect1_dropShadow" result="shape"/>
</filter>
<clipPath id="clip0">
<rect width="38.8571" height="41.1429" fill="white" transform="translate(32.571 29.4286)"/>
</clipPath>
<clipPath id="clip1">
<rect width="42" height="42" fill="white" transform="translate(31 29)"/>
</clipPath>
</defs>
</svg>
