<svg width="104" height="104" viewBox="0 0 104 104" fill="none" xmlns="http://www.w3.org/2000/svg">
<g filter="url(#filter0_d)">
<circle cx="52" cy="50" r="40" fill="#FF9900"/>
</g>
<g clip-path="url(#clip0)">
<path d="M66.0225 61.3714C50.2932 68.8571 40.5314 62.594 34.2826 58.7899C33.8959 58.5502 33.2387 58.846 33.8089 59.5009C35.8907 62.0251 42.7132 68.1092 51.6185 68.1092C60.53 68.1092 65.8315 63.2467 66.4946 62.3985C67.1534 61.5575 66.6881 61.0935 66.0223 61.3714H66.0225ZM70.44 58.9318C70.0176 58.3817 67.8716 58.2792 66.521 58.4451C65.1683 58.6062 63.1379 59.4329 63.3144 59.9293C63.405 60.1152 63.5899 60.0318 64.5191 59.9483C65.4509 59.8553 68.0612 59.5259 68.6051 60.2369C69.1516 60.9529 67.7726 64.3634 67.5207 64.9134C67.2774 65.4635 67.6137 65.6053 68.0708 65.239C68.5216 64.8728 69.3377 63.9244 69.8853 62.5823C70.4293 61.233 70.7609 59.3506 70.4399 58.9318H70.44Z" fill="#FF9900"/>
<path fill-rule="evenodd" clip-rule="evenodd" d="M55.4471 46.0965C55.4471 48.0607 55.4967 49.6987 54.5039 51.443C53.7026 52.8613 52.4333 53.7335 51.0152 53.7335C49.0793 53.7335 47.9519 52.2585 47.9519 50.0817C47.9519 45.7845 51.8021 45.0045 55.4471 45.0045V46.0965ZM60.5312 58.3852C60.1979 58.683 59.7157 58.7044 59.34 58.5057C57.6665 57.116 57.3686 56.4707 56.4469 55.1446C53.6814 57.9669 51.7243 58.8106 48.1363 58.8106C43.8959 58.8106 40.5915 56.194 40.5915 50.9538C40.5915 46.8624 42.8111 44.0756 45.9663 42.7142C48.7035 41.5086 52.5256 41.2959 55.4471 40.9628V40.3103C55.4471 39.1119 55.5391 37.6937 54.8372 36.6585C54.2202 35.7296 53.0432 35.3466 52.0078 35.3466C50.0863 35.3466 48.3702 36.3322 47.9519 38.3744C47.8667 38.8284 47.5335 39.2751 47.0797 39.2963L42.1869 38.7717C41.7757 38.6793 41.3219 38.3462 41.4354 37.715C42.5628 31.787 47.9163 30 52.7097 30C55.1632 30 58.3683 30.6524 60.3042 32.5103C62.7577 34.8006 62.5236 37.8568 62.5236 41.1825V49.0393C62.5236 51.4006 63.5022 52.4358 64.424 53.7123C64.7501 54.166 64.8211 54.7122 64.4098 55.0524C63.3816 55.9103 61.5521 57.5059 60.5453 58.3994L60.5311 58.3852" fill="white"/>
<path d="M66.0225 61.3714C50.2932 68.8571 40.5314 62.594 34.2826 58.7899C33.8959 58.5502 33.2387 58.846 33.8089 59.5009C35.8907 62.0251 42.7132 68.1092 51.6185 68.1092C60.53 68.1092 65.8315 63.2467 66.4946 62.3985C67.1534 61.5575 66.6881 61.0935 66.0223 61.3714H66.0225ZM70.44 58.9318C70.0176 58.3817 67.8716 58.2792 66.521 58.4451C65.1683 58.6062 63.1379 59.4329 63.3144 59.9293C63.405 60.1152 63.5899 60.0318 64.5191 59.9483C65.4509 59.8553 68.0612 59.5259 68.6051 60.2369C69.1516 60.9529 67.7726 64.3634 67.5207 64.9134C67.2774 65.4635 67.6137 65.6053 68.0708 65.239C68.5216 64.8728 69.3377 63.9244 69.8853 62.5823C70.4293 61.233 70.7609 59.3506 70.4399 58.9318H70.44Z" fill="white"/>
<path fill-rule="evenodd" clip-rule="evenodd" d="M55.4471 46.0965C55.4471 48.0607 55.4967 49.6987 54.5039 51.443C53.7026 52.8613 52.4333 53.7335 51.0152 53.7335C49.0793 53.7335 47.9519 52.2585 47.9519 50.0817C47.9519 45.7845 51.8021 45.0045 55.4471 45.0045V46.0965ZM60.5312 58.3852C60.1979 58.683 59.7157 58.7044 59.34 58.5057C57.6665 57.116 57.3686 56.4707 56.4469 55.1446C53.6814 57.9669 51.7243 58.8106 48.1363 58.8106C43.8959 58.8106 40.5915 56.194 40.5915 50.9538C40.5915 46.8624 42.8111 44.0756 45.9663 42.7142C48.7035 41.5086 52.5256 41.2959 55.4471 40.9628V40.3103C55.4471 39.1119 55.5391 37.6937 54.8372 36.6585C54.2202 35.7296 53.0432 35.3466 52.0078 35.3466C50.0863 35.3466 48.3702 36.3322 47.9519 38.3744C47.8667 38.8284 47.5335 39.2751 47.0797 39.2963L42.1869 38.7717C41.7757 38.6793 41.3219 38.3462 41.4354 37.715C42.5628 31.787 47.9163 30 52.7097 30C55.1632 30 58.3683 30.6524 60.3042 32.5103C62.7577 34.8006 62.5236 37.8568 62.5236 41.1825V49.0393C62.5236 51.4006 63.5022 52.4358 64.424 53.7123C64.7501 54.166 64.8211 54.7122 64.4098 55.0524C63.3816 55.9103 61.5521 57.5059 60.5453 58.3994L60.5311 58.3852" fill="black"/>
</g>
<defs>
<filter id="filter0_d" x="0" y="0" width="104" height="104" filterUnits="userSpaceOnUse" color-interpolation-filters="sRGB">
<feFlood flood-opacity="0" result="BackgroundImageFix"/>
<feColorMatrix in="SourceAlpha" type="matrix" values="0 0 0 0 0 0 0 0 0 0 0 0 0 0 0 0 0 0 127 0"/>
<feOffset dy="2"/>
<feGaussianBlur stdDeviation="6"/>
<feColorMatrix type="matrix" values="0 0 0 0 0.0295189 0 0 0 0 0.137798 0 0 0 0 0.187773 0 0 0 0.2 0"/>
<feBlend mode="multiply" in2="BackgroundImageFix" result="effect1_dropShadow"/>
<feBlend mode="normal" in="SourceGraphic" in2="effect1_dropShadow" result="shape"/>
</filter>
<clipPath id="clip0">
<rect width="38.8571" height="38.8571" fill="white" transform="translate(32.571 30)"/>
</clipPath>
</defs>
</svg>
