<svg width="104" height="104" viewBox="0 0 104 104" fill="none" xmlns="http://www.w3.org/2000/svg">
<g filter="url(#filter0_d)">
<circle cx="52" cy="50" r="40" fill="white"/>
</g>
<g clip-path="url(#clip0)">
<path d="M69.5192 59.8445C68.8626 61.3618 68.0854 62.7584 67.1849 64.0425C65.9575 65.793 64.9525 67.0046 64.178 67.6775C62.9773 68.7819 61.6909 69.3476 60.3134 69.3797C59.3245 69.3797 58.1319 69.0983 56.7436 68.5273C55.3508 67.959 54.0708 67.6775 52.9005 67.6775C51.673 67.6775 50.3566 67.959 48.9485 68.5273C47.5383 69.0983 46.4023 69.3958 45.5337 69.4253C44.2127 69.4816 42.896 68.8999 41.5817 67.6775C40.7429 66.9457 39.6937 65.6911 38.4367 63.9138C37.0882 62.0159 35.9794 59.815 35.1108 57.3059C34.1806 54.5957 33.7143 51.9713 33.7143 49.4305C33.7143 46.5201 34.343 44.0099 35.6024 41.9064C36.5921 40.2167 37.9088 38.8839 39.5567 37.9054C41.2047 36.927 42.9853 36.4284 44.9028 36.3965C45.952 36.3965 47.3279 36.7211 49.0378 37.3591C50.7428 37.9993 51.8376 38.3239 52.3176 38.3239C52.6764 38.3239 53.8926 37.9443 55.9544 37.1876C57.9041 36.4858 59.5496 36.1952 60.8976 36.3096C64.5505 36.6045 67.2948 38.0448 69.1199 40.6398C65.853 42.6197 64.2369 45.3929 64.2691 48.9504C64.2986 51.7215 65.3036 54.0274 67.2787 55.8583C68.1739 56.7081 69.1735 57.3649 70.2857 57.8313C70.0445 58.531 69.7899 59.2011 69.5192 59.8445ZM61.1415 26.8693C61.1415 29.0412 60.3482 31.0691 58.767 32.9462C56.8589 35.1776 54.5508 36.467 52.048 36.2635C52.0161 36.003 51.9976 35.7287 51.9976 35.4406C51.9976 33.3555 52.905 31.1241 54.5165 29.2996C55.3211 28.3759 56.3443 27.6078 57.5851 26.995C58.8233 26.3914 59.9945 26.0576 61.096 26.0005C61.1281 26.2908 61.1415 26.5812 61.1415 26.8693V26.8693Z" fill="black"/>
</g>
<defs>
<filter id="filter0_d" x="0" y="0" width="104" height="104" filterUnits="userSpaceOnUse" color-interpolation-filters="sRGB">
<feFlood flood-opacity="0" result="BackgroundImageFix"/>
<feColorMatrix in="SourceAlpha" type="matrix" values="0 0 0 0 0 0 0 0 0 0 0 0 0 0 0 0 0 0 127 0"/>
<feOffset dy="2"/>
<feGaussianBlur stdDeviation="6"/>
<feColorMatrix type="matrix" values="0 0 0 0 0.0295189 0 0 0 0 0.137798 0 0 0 0 0.187773 0 0 0 0.2 0"/>
<feBlend mode="multiply" in2="BackgroundImageFix" result="effect1_dropShadow"/>
<feBlend mode="normal" in="SourceGraphic" in2="effect1_dropShadow" result="shape"/>
</filter>
<clipPath id="clip0">
<rect width="36.5714" height="43.4286" fill="white" transform="translate(33.7143 26)"/>
</clipPath>
</defs>
</svg>
