<svg width="64" height="65" viewBox="0 0 64 65" fill="none" xmlns="http://www.w3.org/2000/svg">
<g clip-path="url(#clip0)">
<path d="M32 58.7468C16.6749 58.7468 4.26666 46.6418 4.26666 31.6914C4.26666 16.7409 16.6749 4.63599 32 4.63599C47.3251 4.63599 59.7333 16.7409 59.7333 31.6914C59.7333 46.6418 47.3251 58.7468 32 58.7468Z" fill="#FFE1E1"/>
<path d="M37.666 54.8051V39.3183C37.666 37.7556 36.3511 36.4728 34.7492 36.4728H30.0154C28.4136 36.4728 27.0987 37.7556 27.0987 39.3183V54.8051H37.666Z" fill="white"/>
<path d="M40.6778 47.7615H26.3091V54.8985H40.6778V47.7615Z" fill="#4D4D4D"/>
<path d="M41.2042 49.1143H25.7596V60.8227H41.2042V49.1143Z" fill="#EB5757"/>
<path d="M41.2042 49.1143H25.7596V50.2338H41.2042V49.1143Z" fill="#EB5757"/>
<path d="M40.6536 47.7615H33.4812V49.0909H40.6536V47.7615Z" fill="#1D1D1D"/>
<path d="M41.2035 50.2336H33.4812V60.8226H41.2035V50.2336Z" fill="#EB5757"/>
<path d="M33.4812 49.1143V50.2338H41.2035V49.1143H40.6775H33.4812Z" fill="#EB5757"/>
<path d="M39.5546 52.4263C39.5546 52.8228 39.2199 53.1493 38.8135 53.1493C38.407 53.1493 38.0723 52.8228 38.0723 52.4263C38.0723 52.0298 38.407 51.7032 38.8135 51.7032C39.2199 51.7032 39.5546 52.0298 39.5546 52.4263Z" fill="#1D1D1D"/>
<path d="M38.8375 60.5193H38.0724V61.7088H38.8375V60.5193Z" fill="#1D1D1D"/>
<path d="M48.3295 60.5193H47.5645V61.7088H48.3295V60.5193Z" fill="#1D1D1D"/>
<path d="M48.3294 61.6622C48.3294 62.7817 46.0342 63.6914 43.2131 63.6914C40.3919 63.6914 38.0968 62.7817 38.0968 61.6622C38.0968 60.5427 40.3919 59.6331 43.2131 59.6331C46.0342 59.6331 48.3294 60.5427 48.3294 61.6622Z" fill="#1D1D1D"/>
<path d="M48.329 60.5661C48.329 61.6856 46.0338 62.5952 43.2127 62.5952C40.3915 62.5952 38.0964 61.6856 38.0964 60.5661C38.0964 59.4465 40.3915 58.5369 43.2127 58.5369C46.0338 58.5136 48.329 59.4465 48.329 60.5661Z" fill="#D1ECFB"/>
<path d="M47.2291 60.2629C47.2291 60.9859 45.4121 61.569 43.1887 61.569C40.9652 61.569 39.1482 60.9859 39.1482 60.2629C39.1482 59.5399 40.9652 58.9568 43.1887 58.9568C45.436 58.9568 47.2291 59.5399 47.2291 60.2629Z" fill="#1D1D1D"/>
<path d="M38.288 58.6301H37.523V59.8196H38.288V58.6301Z" fill="#1D1D1D"/>
<path d="M47.7559 58.6301H46.9908V59.8196H47.7559V58.6301Z" fill="#1D1D1D"/>
<path d="M47.7556 59.773C47.7556 60.8926 45.4605 61.8022 42.6393 61.8022C39.8182 61.8022 37.523 60.8926 37.523 59.773C37.523 58.6535 39.8182 57.7439 42.6393 57.7439C45.4605 57.7439 47.7556 58.6535 47.7556 59.773Z" fill="#1D1D1D"/>
<path d="M47.7556 58.6769C47.7556 59.7965 45.4605 60.7061 42.6393 60.7061C39.8182 60.7061 37.523 59.7965 37.523 58.6769C37.523 57.5574 39.8182 56.6478 42.6393 56.6478C45.4605 56.6244 47.7556 57.5574 47.7556 58.6769Z" fill="#D1ECFB"/>
<path d="M46.6797 58.397C46.6797 59.12 44.8627 59.7031 42.6392 59.7031C40.4158 59.7031 38.5988 59.12 38.5988 58.397C38.5988 57.674 40.3919 57.0909 42.6392 57.0909C44.8627 57.0676 46.6797 57.6507 46.6797 58.397Z" fill="#1D1D1D"/>
<path d="M39.0053 56.8342H38.2403V58.0237H39.0053V56.8342Z" fill="#1D1D1D"/>
<path d="M48.4974 56.8342H47.7323V58.0237H48.4974V56.8342Z" fill="#1D1D1D"/>
<path d="M48.4972 57.9772C48.4972 59.0968 46.2021 60.0064 43.3809 60.0064C40.5598 60.0064 38.2646 59.0968 38.2646 57.9772C38.2646 56.8577 40.5598 55.9481 43.3809 55.9481C46.2021 55.9247 48.4972 56.8344 48.4972 57.9772Z" fill="#1D1D1D"/>
<path d="M48.4968 56.8576C48.4968 57.9772 46.2017 58.8868 43.3805 58.8868C40.5594 58.8868 38.2642 57.9772 38.2642 56.8576C38.2642 55.7381 40.5594 54.8285 43.3805 54.8285C46.2017 54.8285 48.4968 55.7381 48.4968 56.8576Z" fill="#D1ECFB"/>
<path d="M47.3969 56.5779C47.3969 57.3009 45.6038 57.884 43.3565 57.884C41.133 57.884 39.316 57.3009 39.316 56.5779C39.316 55.8548 41.133 55.2717 43.3565 55.2717C45.6038 55.2717 47.3969 55.8548 47.3969 56.5779Z" fill="#1D1D1D"/>
<path d="M53.0152 59.0967C53.6129 61.6856 51.8676 64.2512 49.0943 64.8576C46.3448 65.464 43.6193 63.878 43.0216 61.2891C42.4239 58.7235 44.1692 56.1346 46.9425 55.5282C49.7159 54.9218 52.4175 56.5311 53.0152 59.0967Z" fill="#8FC4D7"/>
<path d="M53.8995 58.8635C53.8995 61.709 51.5326 64.018 48.6158 64.018C45.699 64.018 43.3321 61.709 43.3321 58.8635C43.3321 56.018 45.699 53.709 48.6158 53.709C51.5565 53.709 53.8995 56.018 53.8995 58.8635Z" fill="#1D1D1D"/>
<path d="M53.7568 58.8636C53.7568 61.6158 51.4616 63.8548 48.6405 63.8548C45.8193 63.8548 43.5242 61.6158 43.5242 58.8636C43.5242 56.1114 45.8193 53.8723 48.6405 53.8723C51.4616 53.8723 53.7568 56.1114 53.7568 58.8636Z" fill="#D1ECFB"/>
<path d="M52.6568 58.8636C52.6568 61.0327 50.8398 62.8052 48.6163 62.8052C46.3929 62.8052 44.5759 61.0327 44.5759 58.8636C44.5759 56.6945 46.3929 54.9219 48.6163 54.9219C50.8637 54.9452 52.6568 56.6945 52.6568 58.8636Z" fill="#1D1D1D"/>
<path d="M48.3527 61.1725C48.0897 61.1492 47.8506 61.0792 47.6116 60.9859C47.3964 60.8926 47.2051 60.7527 47.0378 60.5894L47.2051 60.3329C47.229 60.3096 47.2529 60.2862 47.2768 60.2629C47.3008 60.2396 47.3247 60.2396 47.3725 60.2396C47.4203 60.2396 47.4681 60.2629 47.5159 60.3096C47.5637 60.3562 47.6355 60.4028 47.7072 60.4495C47.7789 60.4961 47.8745 60.5428 47.9941 60.6128C48.0897 60.6594 48.2332 60.7061 48.3766 60.7061L48.4962 58.9801C48.3527 58.9335 48.1854 58.8868 48.0419 58.8168C47.8985 58.7702 47.755 58.6769 47.6355 58.5836C47.5159 58.4903 47.4203 58.3737 47.3486 58.2337C47.2768 58.0938 47.229 57.9305 47.229 57.7206C47.229 57.5574 47.2529 57.4174 47.3247 57.2542C47.3964 57.1142 47.4681 56.9743 47.6116 56.8577C47.7311 56.741 47.8745 56.6477 48.0658 56.5778C48.2332 56.5078 48.4483 56.4612 48.6874 56.4612L48.7113 55.9947C48.7113 55.948 48.7352 55.9247 48.7591 55.8781C48.7831 55.8547 48.8309 55.8314 48.8787 55.8314H49.0939L49.046 56.4845C49.2851 56.5078 49.4764 56.5778 49.6437 56.6711C49.8111 56.7644 49.9545 56.8577 50.098 56.9976L49.9545 57.2075C49.9067 57.2775 49.8589 57.3008 49.8111 57.3008C49.7872 57.3008 49.7394 57.2775 49.6916 57.2542C49.6437 57.2308 49.5959 57.2075 49.5242 57.1609C49.4525 57.1142 49.3808 57.0909 49.309 57.0442C49.2134 56.9976 49.1178 56.9743 49.0221 56.9743L48.9026 58.537C49.0699 58.5836 49.2134 58.6303 49.3808 58.7002C49.5481 58.7469 49.6677 58.8402 49.8111 58.9101C49.9306 59.0034 50.0263 59.12 50.1219 59.2367C50.1936 59.3766 50.2414 59.5399 50.2414 59.7265C50.2414 59.9131 50.2175 60.0996 50.1458 60.2862C50.0741 60.4495 49.9785 60.6128 49.8589 60.7294C49.7394 60.8693 49.572 60.9626 49.3808 61.0559C49.1895 61.1492 48.9743 61.1725 48.7352 61.1725L48.6874 61.7556C48.6874 61.8023 48.6635 61.8256 48.6396 61.8722C48.6157 61.8956 48.5679 61.9189 48.5201 61.9189H48.3049L48.3527 61.1725ZM47.8028 57.674C47.8028 57.7673 47.8267 57.8606 47.8506 57.9539C47.8985 58.0238 47.9463 58.0938 48.018 58.1638C48.0897 58.2338 48.1614 58.2804 48.2571 58.327C48.3527 58.3737 48.4483 58.397 48.544 58.4437L48.6396 56.9743C48.4962 56.9976 48.3766 57.0209 48.2571 57.0676C48.1614 57.1142 48.0658 57.1609 47.9941 57.2308C47.9224 57.3008 47.8745 57.3708 47.8506 57.4407C47.8267 57.4874 47.8028 57.5807 47.8028 57.674ZM49.6437 59.8198C49.6437 59.7031 49.6198 59.6098 49.572 59.5399C49.5242 59.4699 49.4764 59.3999 49.4047 59.33C49.3329 59.2833 49.2612 59.2367 49.1656 59.19C49.07 59.1434 48.9743 59.12 48.8548 59.0734L48.7352 60.6827C48.8787 60.6594 48.9982 60.6361 49.1178 60.5894C49.2373 60.5428 49.3329 60.4728 49.4047 60.4028C49.4764 60.3329 49.5481 60.2396 49.572 60.1463C49.6198 60.053 49.6437 59.9364 49.6437 59.8198Z" fill="#D1ECFB"/>
<path d="M49.381 24.2978C49.381 27.1433 47.0141 29.4523 44.0973 29.4523C41.1805 29.4523 38.8136 27.1433 38.8136 24.2978C38.8136 21.4523 41.1805 19.1433 44.0973 19.1433C47.0141 19.1433 49.381 21.4523 49.381 24.2978Z" fill="#1D1D1D"/>
<path d="M49.2142 24.2979C49.2142 27.0501 46.9191 29.2891 44.0979 29.2891C41.2768 29.2891 38.9816 27.0501 38.9816 24.2979C38.9816 21.5457 41.2768 19.3066 44.0979 19.3066C46.9191 19.3066 49.2142 21.5457 49.2142 24.2979Z" fill="#D1ECFB"/>
<path d="M48.1142 24.2979C48.1142 26.467 46.2972 28.2396 44.0738 28.2396C41.8503 28.2396 40.0333 26.467 40.0333 24.2979C40.0333 22.1288 41.8503 20.3562 44.0738 20.3562C46.3211 20.3562 48.1142 22.1288 48.1142 24.2979Z" fill="#1D1D1D"/>
<path d="M43.8101 26.6069C43.5471 26.5835 43.3081 26.5136 43.069 26.4203C42.8538 26.327 42.6625 26.187 42.4952 26.0238L42.6626 25.7672C42.6865 25.7439 42.7104 25.7206 42.7343 25.6972C42.7582 25.6739 42.7821 25.6739 42.8299 25.6739C42.8777 25.6739 42.9255 25.6972 42.9734 25.7439C43.0212 25.7905 43.0929 25.8372 43.1646 25.8838C43.2363 25.9305 43.332 25.9771 43.4515 26.0471C43.5471 26.0937 43.6906 26.1404 43.834 26.1404L43.9536 24.4144C43.8101 24.3678 43.6428 24.3211 43.4993 24.2512C43.3559 24.2045 43.2124 24.1112 43.0929 24.0179C42.9734 23.9246 42.8777 23.808 42.806 23.6681C42.7343 23.5281 42.6865 23.3649 42.6865 23.155C42.6865 22.9917 42.7104 22.8518 42.7821 22.6885C42.8538 22.5485 42.9255 22.4086 43.069 22.292C43.1885 22.1754 43.332 22.0821 43.5232 22.0121C43.6906 21.9421 43.9058 21.8955 44.1449 21.8955L44.1688 21.429C44.1688 21.3824 44.1927 21.359 44.2166 21.3124C44.2405 21.2891 44.2883 21.2657 44.3361 21.2657H44.5513L44.5035 21.9188C44.7426 21.9421 44.9338 22.0121 45.1012 22.1054C45.2685 22.1987 45.412 22.292 45.5554 22.4319L45.412 22.6418C45.3642 22.7118 45.3163 22.7351 45.2685 22.7351C45.2446 22.7351 45.1968 22.7118 45.149 22.6885C45.1012 22.6652 45.0534 22.6418 44.9816 22.5952C44.9099 22.5485 44.8382 22.5252 44.7665 22.4786C44.6708 22.4319 44.5752 22.4086 44.4796 22.4086L44.36 23.9713C44.5274 24.0179 44.6708 24.0646 44.8382 24.1346C45.0055 24.1812 45.1251 24.2745 45.2685 24.3445C45.3881 24.4378 45.4837 24.5544 45.5793 24.671C45.6511 24.8109 45.6989 24.9742 45.6989 25.1608C45.6989 25.3474 45.675 25.534 45.6032 25.7206C45.5315 25.8838 45.4359 26.0471 45.3163 26.1637C45.1968 26.3037 45.0294 26.397 44.8382 26.4902C44.6469 26.5835 44.4317 26.6069 44.1927 26.6069L44.1449 27.19C44.1449 27.2366 44.1209 27.2599 44.097 27.3066C44.0731 27.3299 44.0253 27.3532 43.9775 27.3532H43.7623L43.8101 26.6069ZM43.2603 23.085C43.2603 23.1783 43.2842 23.2716 43.3081 23.3649C43.3559 23.4348 43.4037 23.5048 43.4754 23.5748C43.5471 23.6448 43.6189 23.6914 43.7145 23.7381C43.8101 23.7847 43.9058 23.808 44.0014 23.8547L44.097 22.3853C43.9536 22.4086 43.834 22.4319 43.7145 22.4786C43.6189 22.5252 43.5232 22.5719 43.4515 22.6418C43.3798 22.7118 43.332 22.7818 43.3081 22.8518C43.2842 22.9217 43.2603 23.015 43.2603 23.085ZM45.1251 25.2541C45.1251 25.1375 45.1012 25.0442 45.0534 24.9742C45.0055 24.9042 44.9577 24.8343 44.886 24.7643C44.8143 24.7176 44.7426 24.671 44.6469 24.6244C44.5513 24.5777 44.4557 24.5544 44.3361 24.5077L44.2166 26.1171C44.36 26.0937 44.4796 26.0704 44.5991 26.0238C44.7186 25.9771 44.8143 25.9072 44.886 25.8372C44.9577 25.7672 45.0295 25.6739 45.0534 25.5806C45.1012 25.4873 45.1251 25.3707 45.1251 25.2541Z" fill="#D1ECFB"/>
<path d="M54.9994 37.359C54.9994 40.2045 52.6325 42.5135 49.7157 42.5135C46.7989 42.5135 44.432 40.2045 44.432 37.359C44.432 34.5135 46.7989 32.2045 49.7157 32.2045C52.6325 32.2045 54.9994 34.5135 54.9994 37.359Z" fill="#1D1D1D"/>
<path d="M54.8553 37.3591C54.8553 40.1112 52.5602 42.3503 49.739 42.3503C46.9179 42.3503 44.6227 40.1112 44.6227 37.3591C44.6227 34.6069 46.9179 32.3678 49.739 32.3678C52.5602 32.3678 54.8553 34.6069 54.8553 37.3591Z" fill="#D1ECFB"/>
<path d="M53.7566 37.359C53.7566 39.5281 51.9396 41.3007 49.7162 41.3007C47.4927 41.3007 45.6757 39.5281 45.6757 37.359C45.6757 35.19 47.4927 33.4174 49.7162 33.4174C51.9635 33.4407 53.7566 35.19 53.7566 37.359Z" fill="#1D1D1D"/>
<path d="M49.4285 39.668C49.1655 39.6447 48.9264 39.5747 48.6873 39.4814C48.4722 39.3881 48.2809 39.2482 48.1135 39.0849L48.2809 38.8284C48.3048 38.805 48.3287 38.7817 48.3526 38.7584C48.3765 38.7351 48.4004 38.7351 48.4483 38.7351C48.4961 38.7351 48.5439 38.7584 48.5917 38.805C48.6395 38.8517 48.7112 38.8983 48.783 38.945C48.8547 38.9916 48.9503 39.0383 49.0699 39.1083C49.1655 39.1549 49.3089 39.2015 49.4524 39.2015L49.5719 37.4756C49.4285 37.4289 49.2611 37.3823 49.1177 37.3123C48.9742 37.2657 48.8308 37.1724 48.7112 37.0791C48.5917 36.9858 48.4961 36.8692 48.4243 36.7292C48.3526 36.5893 48.3287 36.426 48.3287 36.2161C48.3287 36.0529 48.3526 35.9129 48.4243 35.7496C48.4961 35.6097 48.5678 35.4698 48.7112 35.3531C48.8308 35.2365 48.9742 35.1432 49.1655 35.0733C49.3329 35.0033 49.548 34.9566 49.7871 34.9566L49.811 34.4902C49.811 34.4435 49.8349 34.4202 49.8588 34.3736C49.8827 34.3502 49.9306 34.3269 49.9784 34.3269H50.1935L50.1457 34.98C50.3848 35.0033 50.5761 35.0733 50.7434 35.1666C50.9108 35.2599 51.0542 35.3531 51.1977 35.4931L51.0542 35.703C51.0064 35.773 50.9586 35.7963 50.9108 35.7963C50.8869 35.7963 50.8391 35.773 50.7912 35.7496C50.7434 35.7263 50.6956 35.703 50.6239 35.6564C50.5522 35.6097 50.4804 35.5864 50.4087 35.5397C50.3131 35.4931 50.2174 35.4698 50.1218 35.4698L50.0023 37.0324C50.1696 37.0791 50.3131 37.1257 50.4804 37.1957C50.6478 37.2424 50.7673 37.3357 50.9108 37.4056C51.0303 37.4989 51.126 37.6155 51.2216 37.7322C51.2933 37.8721 51.3411 38.0354 51.3411 38.222C51.3411 38.4085 51.3172 38.5951 51.2455 38.7817C51.1738 38.945 51.0781 39.1083 50.9586 39.2249C50.8391 39.3648 50.6717 39.4581 50.4804 39.5514C50.2892 39.6447 50.074 39.668 49.8349 39.668L49.7871 40.2511C49.7871 40.2978 49.7632 40.3211 49.7393 40.3677C49.7154 40.3911 49.6676 40.4144 49.6197 40.4144H49.4046L49.4285 39.668ZM48.9025 36.1695C48.9025 36.2628 48.9264 36.3561 48.9503 36.4494C48.9981 36.5193 49.046 36.5893 49.1177 36.6593C49.1894 36.7292 49.2611 36.7759 49.3568 36.8225C49.4524 36.8692 49.548 36.8925 49.6437 36.9392L49.7393 35.4698C49.5958 35.4931 49.4763 35.5164 49.3568 35.5631C49.2611 35.6097 49.1655 35.6564 49.0938 35.7263C49.022 35.7963 48.9742 35.8663 48.9503 35.9362C48.9264 35.9829 48.9025 36.0762 48.9025 36.1695ZM50.7434 38.3152C50.7434 38.1986 50.7195 38.1053 50.6717 38.0354C50.6239 37.9654 50.5761 37.8954 50.5043 37.8255C50.4326 37.7788 50.3609 37.7322 50.2653 37.6855C50.1696 37.6389 50.074 37.6155 49.9545 37.5689L49.8349 39.1782C49.9784 39.1549 50.0979 39.1316 50.2174 39.0849C50.337 39.0383 50.4326 38.9683 50.5043 38.8983C50.5761 38.8284 50.6478 38.7351 50.6717 38.6418C50.7195 38.5485 50.7434 38.4319 50.7434 38.3152Z" fill="#D1ECFB"/>
<path d="M24.3971 41.7671C24.3971 44.6126 22.0302 46.9216 19.1134 46.9216C16.1966 46.9216 13.8297 44.6126 13.8297 41.7671C13.8297 38.9216 16.1966 36.6125 19.1134 36.6125C22.0302 36.6125 24.3971 38.9216 24.3971 41.7671Z" fill="#1D1D1D"/>
<path d="M24.2303 41.7671C24.2303 44.5193 21.9351 46.7584 19.114 46.7584C16.2928 46.7584 13.9977 44.5193 13.9977 41.7671C13.9977 39.0149 16.2928 36.7759 19.114 36.7759C21.9351 36.7759 24.2303 39.0149 24.2303 41.7671Z" fill="#D1ECFB"/>
<path d="M23.1543 41.7671C23.1543 43.9362 21.3373 45.7088 19.1139 45.7088C16.8904 45.7088 15.0734 43.9362 15.0734 41.7671C15.0734 39.598 16.8904 37.8254 19.1139 37.8254C21.3373 37.8488 23.1543 39.598 23.1543 41.7671Z" fill="#1D1D1D"/>
<path d="M18.8262 44.0761C18.5632 44.0528 18.3241 43.9828 18.0851 43.8895C17.8699 43.7962 17.6786 43.6563 17.5113 43.493L17.6786 43.2364C17.7025 43.2131 17.7264 43.1898 17.7504 43.1665C17.7743 43.1431 17.7982 43.1431 17.846 43.1431C17.8938 43.1431 17.9416 43.1665 17.9894 43.2131C18.0373 43.2598 18.109 43.3064 18.1807 43.3531C18.2524 43.3997 18.3481 43.4463 18.4676 43.5163C18.5632 43.563 18.7067 43.6096 18.8501 43.6096L18.9697 41.8837C18.8262 41.837 18.6589 41.7904 18.5154 41.7204C18.372 41.6738 18.2285 41.5805 18.109 41.4872C17.9894 41.3939 17.8938 41.2773 17.8221 41.1373C17.7504 40.9974 17.7025 40.8341 17.7025 40.6242C17.7025 40.4609 17.7264 40.321 17.7982 40.1577C17.8699 40.0178 17.9416 39.8778 18.0851 39.7612C18.2046 39.6446 18.3481 39.5513 18.5393 39.4813C18.7067 39.4114 18.9218 39.3647 19.1609 39.3647L19.1848 38.8982C19.1848 38.8516 19.2087 38.8283 19.2327 38.7816C19.2566 38.7583 19.3044 38.735 19.3522 38.735H19.5674L19.5196 39.388C19.7586 39.4114 19.9499 39.4813 20.1173 39.5746C20.2846 39.6679 20.4281 39.7612 20.5715 39.9012L20.4281 40.1111C20.3802 40.181 20.3324 40.2044 20.2846 40.2044C20.2607 40.2044 20.2129 40.181 20.1651 40.1577C20.1173 40.1344 20.0694 40.1111 19.9977 40.0644C19.926 40.0178 19.8543 39.9945 19.7825 39.9478C19.6869 39.9012 19.5913 39.8778 19.4956 39.8778L19.3761 41.4405C19.5435 41.4872 19.6869 41.5338 19.8543 41.6038C20.0216 41.6504 20.1412 41.7437 20.2846 41.8137C20.4041 41.907 20.4998 42.0236 20.5954 42.1402C20.6671 42.2802 20.715 42.4434 20.715 42.63C20.715 42.8166 20.691 43.0032 20.6193 43.1898C20.5476 43.3531 20.452 43.5163 20.3324 43.6329C20.2129 43.7729 20.0455 43.8662 19.8543 43.9595C19.663 44.0528 19.4478 44.0761 19.2087 44.0761L19.1609 44.6592C19.1609 44.7058 19.137 44.7291 19.1131 44.7758C19.0892 44.7991 19.0414 44.8224 18.9936 44.8224H18.7784L18.8262 44.0761ZM18.3002 40.5775C18.3002 40.6708 18.3241 40.7641 18.3481 40.8574C18.3959 40.9274 18.4437 40.9974 18.5154 41.0673C18.5871 41.1373 18.6589 41.184 18.7545 41.2306C18.8501 41.2773 18.9458 41.3006 19.0414 41.3472L19.137 39.8778C18.9936 39.9012 18.874 39.9245 18.7545 39.9711C18.6589 40.0178 18.5632 40.0644 18.4915 40.1344C18.4198 40.2044 18.372 40.2743 18.3481 40.3443C18.3002 40.391 18.3002 40.4843 18.3002 40.5775ZM20.1412 42.7233C20.1412 42.6067 20.1173 42.5134 20.0694 42.4434C20.0216 42.3735 19.9738 42.3035 19.9021 42.2335C19.8304 42.1869 19.7586 42.1402 19.663 42.0936C19.5674 42.0469 19.4717 42.0236 19.3522 41.977L19.2327 43.5863C19.3761 43.563 19.4956 43.5396 19.6152 43.493C19.7347 43.4463 19.8304 43.3764 19.9021 43.3064C19.9738 43.2364 20.0455 43.1431 20.0694 43.0498C20.1173 42.9566 20.1412 42.8399 20.1412 42.7233Z" fill="#D1ECFB"/>
<path d="M28.342 16.2511C30.2068 18.6768 29.8004 22.0354 27.4574 23.7613C25.1144 25.4873 21.6955 24.9042 19.8307 22.5019C17.9659 20.0762 18.3723 16.7176 20.7153 14.9917C23.0822 13.2657 26.4772 13.8255 28.342 16.2511Z" fill="#1D1D1D"/>
<path d="M28.2217 16.3212C30.0148 18.6769 29.7996 21.8022 27.6957 23.3416C25.5918 24.8809 22.436 24.2045 20.6429 21.8722C18.8498 19.5165 19.0888 16.3911 21.1688 14.8518C23.2727 13.3124 26.4286 13.9888 28.2217 16.3212Z" fill="#D1ECFB"/>
<path d="M27.4334 16.9275C28.844 18.7701 28.6767 21.2424 27.027 22.4552C25.3773 23.6681 22.8909 23.1316 21.4803 21.2891C20.0698 19.4465 20.2371 16.9742 21.8868 15.7614C23.5125 14.5485 25.999 15.0617 27.4334 16.9275Z" fill="#1D1D1D"/>
<path d="M25.7357 21.219C25.5205 21.3356 25.3054 21.4289 25.0663 21.4523C24.8272 21.4756 24.612 21.4756 24.373 21.4289L24.3491 21.1024C24.3491 21.0791 24.3491 21.0558 24.373 21.0091C24.373 20.9858 24.3969 20.9625 24.4208 20.9391C24.4447 20.9158 24.4925 20.9158 24.5642 20.9158C24.636 20.9158 24.7077 20.9158 24.8033 20.9391C24.8989 20.9391 24.9946 20.9391 25.1141 20.9158C25.2337 20.8925 25.3532 20.8692 25.4727 20.7992L24.4447 19.2598C24.3012 19.3065 24.1578 19.3531 24.0143 19.3765C23.8709 19.3998 23.7274 19.4231 23.5601 19.3998C23.4166 19.3765 23.2732 19.3298 23.1297 19.2598C22.9863 19.1899 22.8428 19.0499 22.6994 18.8633C22.6038 18.7234 22.5081 18.5835 22.4603 18.4202C22.4125 18.2569 22.3886 18.0937 22.4125 17.9304C22.4364 17.7671 22.4842 17.6039 22.5559 17.4406C22.6277 17.2773 22.7711 17.1374 22.9385 17.0208L22.6516 16.6009C22.6277 16.5543 22.6277 16.531 22.6277 16.4843C22.6277 16.4377 22.6516 16.4144 22.6755 16.391L22.8428 16.2744L23.2254 16.8342C23.4166 16.7409 23.6079 16.6709 23.7753 16.6476C23.9665 16.6243 24.1339 16.6476 24.3251 16.6709L24.3491 16.9275C24.3491 16.9974 24.3491 17.0674 24.3012 17.0907C24.2773 17.1141 24.2534 17.1141 24.1817 17.1141C24.1339 17.1141 24.0622 17.1141 23.9904 17.1141C23.9187 17.1141 23.847 17.1374 23.7514 17.1374C23.6557 17.1607 23.584 17.184 23.4884 17.2307L24.4208 18.6301C24.5642 18.5835 24.7316 18.5368 24.875 18.5135C25.0185 18.4668 25.1858 18.4668 25.3293 18.4668C25.4727 18.4668 25.6162 18.5135 25.7596 18.5835C25.9031 18.6534 26.0465 18.77 26.1661 18.9566C26.2856 19.1199 26.3812 19.3065 26.453 19.4697C26.5247 19.6563 26.5486 19.8429 26.5247 20.0062C26.5247 20.1928 26.4769 20.356 26.3812 20.5193C26.2856 20.6826 26.1661 20.8458 25.9987 20.9625L26.3573 21.4756C26.3812 21.5222 26.3812 21.5456 26.3812 21.5922C26.3812 21.6388 26.3573 21.6622 26.3334 21.6855L26.1661 21.8021L25.7357 21.219ZM23.058 18.5368C23.1297 18.6301 23.2015 18.7001 23.2732 18.7467C23.3449 18.7934 23.4405 18.8167 23.5123 18.84C23.6079 18.8633 23.6796 18.8633 23.7753 18.84C23.8709 18.8167 23.9665 18.8167 24.0622 18.7934L23.1776 17.4872C23.0819 17.5805 23.0102 17.6738 22.9624 17.7671C22.9146 17.8604 22.8907 17.9537 22.8668 18.047C22.8668 18.1403 22.8668 18.2336 22.8907 18.3036C22.9385 18.3735 22.9863 18.4435 23.058 18.5368ZM25.8074 19.3531C25.7357 19.2598 25.664 19.1899 25.5684 19.1432C25.4966 19.0966 25.401 19.0732 25.3054 19.0732C25.2097 19.0732 25.1141 19.0732 25.0185 19.0732C24.9228 19.0966 24.8272 19.1199 24.7077 19.1432L25.6879 20.5893C25.7835 20.496 25.8553 20.4027 25.9031 20.3094C25.9509 20.2161 25.9748 20.0995 25.9987 20.0062C25.9987 19.9129 25.9987 19.7963 25.9509 19.6797C25.9509 19.563 25.9031 19.4697 25.8074 19.3531Z" fill="#D1ECFB"/>
<path d="M29.1783 3.02665C31.2344 0.764264 34.5337 0.321115 36.5181 2.04706C38.5025 3.77301 38.4546 7.01499 36.3746 9.27738C34.3186 11.5398 31.0193 11.9829 29.0349 10.257C27.0505 8.5077 27.1222 5.28904 29.1783 3.02665Z" fill="#1D1D1D"/>
<path d="M29.2734 3.0967C31.2817 0.904276 34.2941 0.344509 35.9916 1.8139C37.713 3.30661 37.4739 6.29203 35.4656 8.48445C33.4574 10.6769 30.4688 11.2366 28.7475 9.76725C27.05 8.27454 27.2652 5.28912 29.2734 3.0967Z" fill="#D1ECFB"/>
<path d="M29.7996 3.51645C31.3775 1.7905 33.7444 1.34735 35.0833 2.51353C36.4221 3.67971 36.2548 6.0354 34.6769 7.76134C33.0989 9.48729 30.732 9.93044 29.3932 8.76426C28.0543 7.57476 28.2456 5.24239 29.7996 3.51645Z" fill="#1D1D1D"/>
<path d="M34.1031 3.93629C34.2465 4.09955 34.3421 4.28614 34.4139 4.47273C34.4617 4.68264 34.4856 4.86923 34.4617 5.07915L34.1509 5.19576C34.127 5.19576 34.1031 5.21909 34.0792 5.19576C34.0553 5.19576 34.0313 5.17244 34.0074 5.17244C33.9835 5.14912 33.9596 5.10247 33.9596 5.05582C33.9596 4.98585 33.9596 4.91588 33.9357 4.84591C33.9357 4.75262 33.9118 4.68264 33.8879 4.56603C33.864 4.47273 33.8162 4.37944 33.7205 4.28614L32.4056 5.59227C32.4773 5.70888 32.5251 5.8255 32.573 5.96544C32.6208 6.08206 32.6447 6.222 32.6447 6.36194C32.6447 6.50189 32.6208 6.64183 32.573 6.78177C32.5251 6.92171 32.4056 7.08498 32.2621 7.24824C32.1426 7.36486 32.0231 7.48148 31.8796 7.57477C31.7362 7.66807 31.5688 7.71471 31.4254 7.73804C31.258 7.76136 31.1146 7.76136 30.9472 7.73804C30.7798 7.71471 30.6364 7.62142 30.493 7.5048L30.1343 7.85466C30.1104 7.87798 30.0626 7.9013 30.0148 7.92463C29.967 7.92463 29.9431 7.92463 29.9192 7.9013L29.7757 7.78469L30.2778 7.29489C30.1582 7.15495 30.0865 6.99168 30.0387 6.82842C29.9909 6.66515 29.9909 6.50189 29.9909 6.33862L30.23 6.24533C30.3017 6.222 30.3495 6.222 30.3973 6.24533C30.4212 6.26865 30.4212 6.29197 30.4451 6.33862C30.4451 6.38527 30.469 6.43192 30.469 6.50189C30.493 6.57186 30.493 6.64183 30.5169 6.7118C30.5408 6.78177 30.5886 6.85174 30.6364 6.92171L31.8318 5.73221C31.7601 5.61559 31.7123 5.47565 31.6644 5.35903C31.6166 5.24241 31.5688 5.10247 31.5688 4.96253C31.5449 4.82259 31.5688 4.68264 31.6166 4.5427C31.6644 4.40276 31.7601 4.2395 31.9035 4.07623C32.047 3.91297 32.1904 3.79635 32.3578 3.70305C32.5251 3.60976 32.6925 3.53979 32.8599 3.49314C33.0272 3.44649 33.1946 3.44649 33.3619 3.49314C33.5293 3.51646 33.6966 3.60976 33.8401 3.72638L34.2943 3.28323C34.3182 3.2599 34.3661 3.23658 34.4139 3.21326C34.4617 3.21326 34.4856 3.21326 34.5095 3.23658L34.653 3.3532L34.1031 3.93629ZM31.8796 7.01501C31.9513 6.92171 31.9992 6.85174 32.047 6.78177C32.0709 6.7118 32.0948 6.6185 32.0948 6.54853C32.0948 6.47856 32.0948 6.38527 32.0709 6.3153C32.047 6.24533 32.0231 6.15203 31.9753 6.08206L30.8516 7.2016C30.9472 7.27157 31.0428 7.31821 31.1385 7.34154C31.2341 7.36486 31.3297 7.36486 31.4254 7.34154C31.521 7.31821 31.5927 7.29489 31.6644 7.24824C31.7362 7.15495 31.8079 7.08498 31.8796 7.01501ZM32.3339 4.33279C32.2621 4.42608 32.1904 4.49606 32.1665 4.58935C32.1426 4.68264 32.1187 4.75262 32.1187 4.84591C32.1187 4.9392 32.1426 5.00918 32.1665 5.10247C32.1904 5.19576 32.2382 5.26574 32.2621 5.35903L33.5054 4.1462C33.4097 4.07623 33.3141 4.02958 33.1946 4.02958C33.0989 4.00626 32.9794 4.00626 32.8838 4.02958C32.7881 4.05291 32.6925 4.09955 32.5969 4.1462C32.5012 4.16953 32.4056 4.2395 32.3339 4.33279Z" fill="#D1ECFB"/>
<path d="M37.7372 28.5426C36.996 28.5426 36.3505 29.0324 36.1592 29.6855C35.8962 29.6155 35.6332 29.5922 35.3463 29.5689V28.4727C35.3463 27.5864 34.6052 26.8633 33.6967 26.8633C32.7882 26.8633 32.047 27.5864 32.047 28.4727V29.5689H31.282V27.0266C31.282 26.1403 30.5408 25.4173 29.6323 25.4173C28.7238 25.4173 27.9827 26.1403 27.9827 27.0266V29.5922C27.7197 29.5922 27.4567 29.6388 27.1937 29.6855V22.0587C27.1937 21.1724 26.4526 20.4493 25.544 20.4493C24.6355 20.4493 23.8944 21.1724 23.8944 22.0587V33.5805C23.8944 33.6505 23.8944 33.6972 23.8944 33.7671V37.7788L23.1293 37.0324V33.8138C23.1293 32.5077 22.0296 31.4348 20.6907 31.4348H19.8778C19.8539 31.4348 19.8061 31.4348 19.7822 31.4348V34.3969C19.7822 34.3969 19.7822 34.3969 19.7583 34.3969V38.3386L25.2093 43.6563V43.5397C25.9744 44.2394 27.0024 44.6826 28.15 44.6826H35.1073C37.4742 44.6826 39.3868 42.8167 39.3868 40.5077V37.7088V33.7205V30.152C39.3868 29.2657 38.6457 28.5426 37.7372 28.5426Z" fill="white"/>
</g>
<defs>
<clipPath id="clip0">
<rect width="55.4667" height="64" fill="white" transform="translate(4.26666 0.997559)"/>
</clipPath>
</defs>
</svg>
