<svg width="64" height="65" viewBox="0 0 64 65" fill="none" xmlns="http://www.w3.org/2000/svg">
<g clip-path="url(#clip0)">
<path d="M32 63.9128C14.9067 63.9128 1.06667 49.8382 1.06667 32.4552C1.06667 15.0721 14.9067 0.997559 32 0.997559C49.0933 0.997559 62.9333 15.0721 62.9333 32.4552C62.9333 49.8382 49.0933 63.9128 32 63.9128Z" fill="#FFE1E1"/>
<path d="M43.5733 15.0722V11.6824C41.9467 11.7908 40.6667 13.1739 40.6667 14.8553C40.6667 16.618 42.0533 18.0281 43.7867 18.0281C45.44 18.0281 46.8 16.7264 46.9067 15.0722H43.5733Z" fill="#4D4D4D"/>
<path d="M46.7466 14.2857C46.7466 12.984 45.7066 11.8993 44.4 11.8993V14.2857H46.7466Z" fill="#1D1D1D"/>
<path d="M49.252 38.3127C48.9854 39.1263 48.5854 39.8585 48.0254 40.4551L52.212 46.4212C54.3187 44.55 55.8654 42.028 56.4254 39.1263L49.252 38.3127Z" fill="#4D4D4D"/>
<path d="M44.96 30.7733C47.4133 31.2886 49.2533 33.3767 49.4933 35.953L56.6667 36.7665C56.6667 36.6852 56.6667 36.6038 56.6667 36.5225C56.6667 29.6886 51.52 24.075 44.9333 23.4784V30.7733H44.96Z" fill="#1D1D1D"/>
<path d="M39.5467 32.5908C40.3467 31.6959 41.4133 31.045 42.6133 30.7738V23.4518C38.8 23.8043 35.4667 25.8653 33.3333 28.8484L39.5467 32.5908Z" fill="#4D4D4D"/>
<path d="M46.106 41.8652C45.386 42.1906 44.6127 42.3805 43.786 42.3805C40.6127 42.3805 38.026 39.75 38.026 36.5228C38.026 35.872 38.1593 35.2483 38.346 34.6517L32.1327 30.9364C31.3327 32.6449 30.8793 34.5161 30.8793 36.5228C30.8793 43.7635 36.6393 49.6483 43.786 49.6483C46.1593 49.6483 48.3727 48.9974 50.2927 47.8313L46.106 41.8652Z" fill="#4D4D4D"/>
<path d="M18.587 41.54C17.0403 43.1129 17.0403 45.6891 18.587 47.2891L23.1737 51.9535C24.7203 53.5264 27.2537 53.5264 28.827 51.9535L33.4137 47.2891C34.9603 45.7163 34.9603 43.14 33.4137 41.54L28.827 36.8756C27.2803 35.3027 24.747 35.3027 23.1737 36.8756L18.587 41.54Z" fill="white"/>
<path d="M18.373 30.3942H17.5464C17.5197 30.3942 17.4664 30.3942 17.4397 30.3942V44.6586C17.4664 44.6586 17.5197 44.6586 17.5464 44.6586H18.373C19.733 44.6586 20.853 43.5196 20.853 42.1365V32.9162C20.853 31.5331 19.733 30.3942 18.373 30.3942Z" fill="white"/>
<path d="M39.974 38.2857C40.6407 38.9637 40.6407 40.0485 39.974 40.6993L31.2273 49.5942C30.5607 50.2722 29.5207 50.2722 28.854 49.5942C28.1873 48.9163 28.1873 47.8586 28.854 47.1807L37.6007 38.2857C38.2407 37.6349 39.3073 37.6349 39.974 38.2857Z" fill="white"/>
<path d="M39.8137 32.4009C40.4804 33.0789 40.4804 34.1365 39.8137 34.8145L31.067 43.7094C30.4003 44.3874 29.3603 44.3874 28.6937 43.7094C28.027 43.0314 28.027 41.9467 28.6937 41.2958L37.4403 32.4009C38.0803 31.723 39.147 31.723 39.8137 32.4009Z" fill="white"/>
<path d="M39.6533 26.4891C40.32 27.167 40.32 28.2247 39.6533 28.9026L30.9067 37.7975C30.24 38.4755 29.2 38.4755 28.5333 37.7975C27.8667 37.1196 27.8667 36.0619 28.5333 35.384L37.28 26.4891C37.9467 25.8111 39.0133 25.8111 39.6533 26.4891Z" fill="white"/>
<path d="M29.4406 61.4992V45.0924C29.4406 43.4382 28.1073 42.0823 26.4806 42.0823H21.6806C20.054 42.0823 18.7206 43.4382 18.7206 45.0924V61.4992H29.4406Z" fill="white"/>
<path d="M34.0806 14.9636H23.2273C21.9206 14.9636 20.854 16.0484 20.854 17.3772V43.7907C20.854 45.1196 21.9206 46.2043 23.2273 46.2043H34.0806C35.3873 46.2043 36.4539 45.1196 36.4539 43.7907V17.3772C36.4539 16.0484 35.3873 14.9636 34.0806 14.9636Z" fill="#4D4D4D"/>
<path d="M26.6133 16.835H30.6933C30.8 16.835 30.9067 16.9434 30.9067 17.0519C30.9067 17.1604 30.8 17.2689 30.6933 17.2689H26.6133C26.5067 17.2689 26.4 17.1604 26.4 17.0519C26.4 16.9163 26.48 16.835 26.6133 16.835Z" fill="white"/>
<path d="M28.6406 44.4146C27.8673 44.4146 27.254 43.7908 27.254 43.0044C27.254 42.218 27.8673 41.5942 28.6406 41.5942C29.414 41.5942 30.0273 42.218 30.0273 43.0044C30.0273 43.7908 29.414 44.4146 28.6406 44.4146Z" fill="white"/>
<path d="M35.4137 19.7095H21.8937V40.0756H35.4137V19.7095Z" fill="white"/>
<path d="M28.6394 42.0553C28.106 42.0553 27.6794 42.4892 27.6794 43.0316C27.6794 43.5739 28.106 44.0079 28.6394 44.0079C29.1727 44.0079 29.5994 43.5739 29.5994 43.0316C29.5994 42.4892 29.1727 42.0553 28.6394 42.0553Z" fill="#1D1D1D"/>
<path d="M34.0803 14.9636H28.5603V16.8348H30.6937C30.8003 16.8348 30.907 16.9433 30.907 17.0518C30.907 17.1602 30.8003 17.2687 30.6937 17.2687H28.5603V19.7094H35.4137V40.0755H28.5603V41.6212C28.587 41.6212 28.6137 41.6212 28.667 41.6212C29.4403 41.6212 30.0537 42.245 30.0537 43.0314C30.0537 43.7907 29.4403 44.4416 28.667 44.4416C28.6403 44.4416 28.6137 44.4416 28.5603 44.4416V46.2314H34.0803C35.387 46.2314 36.4537 45.1467 36.4537 43.8179V17.3772C36.4537 16.0484 35.387 14.9636 34.0803 14.9636Z" fill="#1D1D1D"/>
<path d="M30.907 17.0247C30.907 16.9162 30.8003 16.8077 30.6937 16.8077H28.5603V17.2416H30.6937C30.8003 17.2416 30.907 17.1603 30.907 17.0247Z" fill="#D1ECFB"/>
<path d="M30.0267 43.0314C30.0267 42.2449 29.4133 41.6212 28.64 41.6212C28.6133 41.6212 28.5867 41.6212 28.5333 41.6212V42.0551C28.56 42.0551 28.5867 42.0551 28.64 42.0551C29.1733 42.0551 29.6 42.489 29.6 43.0314C29.6 43.5738 29.1733 44.0077 28.64 44.0077C28.6133 44.0077 28.5867 44.0077 28.5333 44.0077V44.4416C28.56 44.4416 28.5867 44.4416 28.64 44.4416C29.4133 44.4144 30.0267 43.7907 30.0267 43.0314Z" fill="white"/>
<path d="M35.4137 19.7095H28.5603V40.0756H35.4137V19.7095Z" fill="#FFFAF9"/>
<path d="M29.6 43.0316C29.6 42.4892 29.1733 42.0553 28.64 42.0553C28.6133 42.0553 28.5867 42.0553 28.5333 42.0553V43.9807C28.56 43.9807 28.5867 43.9807 28.64 43.9807C29.1733 43.9807 29.6 43.5468 29.6 43.0316Z" fill="#1D1D1D"/>
<path d="M30.0806 53.6077H18.054V59.845H30.0806V53.6077Z" fill="#4D4D4D"/>
<path d="M30.5333 54.7737H17.6V64.9974H30.5333V54.7737Z" fill="#EB5757"/>
<path d="M30.5333 54.7737H17.6V55.7499H30.5333V54.7737Z" fill="#EB5757"/>
<path d="M30.0793 53.6077H24.0793V54.7738H30.0793V53.6077Z" fill="#1D1D1D"/>
<path d="M30.5327 55.7501H24.0793V64.9976H30.5327V55.7501Z" fill="#E13A3A"/>
<path d="M24.0793 54.7738V55.7501H30.5593V54.7738H30.106H24.0793Z" fill="#EB5757"/>
<path d="M29.1727 57.6756C29.1727 58.0282 28.906 58.2993 28.5593 58.2993C28.2127 58.2993 27.946 58.0282 27.946 57.6756C27.946 57.3231 28.2127 57.0519 28.5593 57.0519C28.8793 57.0519 29.1727 57.3231 29.1727 57.6756Z" fill="#1D1D1D"/>
<path d="M24.3206 33.1875C24.8361 33.1875 25.254 32.7625 25.254 32.2383C25.254 31.7141 24.8361 31.2892 24.3206 31.2892C23.8052 31.2892 23.3873 31.7141 23.3873 32.2383C23.3873 32.7625 23.8052 33.1875 24.3206 33.1875Z" fill="#EB5757"/>
<path d="M24.1074 32.8619C24.0274 32.8619 23.9208 32.8348 23.8408 32.7805C23.6808 32.645 23.6541 32.3738 23.7874 32.2111L29.0141 25.7839C29.0941 25.7026 29.2008 25.6483 29.3074 25.6483C29.4141 25.6483 29.5208 25.6755 29.6008 25.7568L32.2408 28.4144L39.2808 19.9534C39.4141 19.7907 39.6808 19.7636 39.8408 19.8992C40.0008 20.0348 40.0275 20.306 39.8941 20.4687L32.5608 29.2551C32.4808 29.3365 32.3741 29.3907 32.2674 29.3907C32.1608 29.3907 32.0541 29.3636 31.9741 29.2822L29.3341 26.6246L24.4274 32.7263C24.3474 32.8077 24.2141 32.8619 24.1074 32.8619Z" fill="#EB5757"/>
<path d="M39.7603 22.9366C39.547 22.9366 39.3603 22.7468 39.3603 22.5298V20.4959H37.3603C37.147 20.4959 36.9603 20.3061 36.9603 20.0892C36.9603 19.8722 37.147 19.6824 37.3603 19.6824H39.7603C39.9737 19.6824 40.1603 19.8722 40.1603 20.0892V22.5298C40.1603 22.7468 39.9737 22.9366 39.7603 22.9366Z" fill="#EB5757"/>
<path d="M8.47969 36.1704H4.71969C4.53302 36.1704 4.37302 36.0077 4.37302 35.8178V30.828C4.37302 30.6382 4.53302 30.4755 4.71969 30.4755H8.50636C8.69302 30.4755 8.85302 30.6382 8.85302 30.828V35.8178C8.82636 36.0077 8.66636 36.1704 8.47969 36.1704ZM4.90636 35.628H8.29302V31.045H4.90636V35.628Z" fill="#4D4D4D"/>
<path d="M13.813 36.1704H10.053C9.86636 36.1704 9.70636 36.0076 9.70636 35.8178V25.2958C9.70636 25.1059 9.86636 24.9432 10.053 24.9432H13.8397C14.0264 24.9432 14.1864 25.1059 14.1864 25.2958V35.8178C14.1597 36.0076 13.9997 36.1704 13.813 36.1704ZM10.2397 35.628H13.6264V25.4856H10.2397V35.628Z" fill="#4D4D4D"/>
<path d="M19.1464 36.1704H15.3864C15.1997 36.1704 15.0397 36.0077 15.0397 35.8178V19.5195C15.0397 19.3297 15.1997 19.167 15.3864 19.167H19.173C19.3597 19.167 19.5197 19.3297 19.5197 19.5195V35.845C19.493 36.0077 19.333 36.1704 19.1464 36.1704ZM15.573 35.628H18.9597V19.7094H15.573V35.628Z" fill="#4D4D4D"/>
</g>
<defs>
<clipPath id="clip0">
<rect width="61.8667" height="64" fill="white" transform="translate(1.06667 0.997559)"/>
</clipPath>
</defs>
</svg>
