<svg width="1380" height="1296" viewBox="0 0 1380 1296" fill="none" xmlns="http://www.w3.org/2000/svg">
<path d="M697.166 154.415L694.51 154.9L752.439 476.964L755.096 476.479L697.166 154.415Z" fill="#B3B3B3"/>
<path d="M1090.45 259.27L753.053 475.737L754.503 478.032L1091.9 261.564L1090.45 259.27Z" fill="#B3B3B3"/>
<path d="M904.548 -11.1429L902.334 -9.58606L1090.08 261.361L1092.29 259.804L904.548 -11.1429Z" fill="#B3B3B3"/>
<path d="M902.599 -11.2974L694.967 153.771L696.639 155.906L904.272 -9.16227L902.599 -11.2974Z" fill="#B3B3B3"/>
<path d="M606.167 -56.6059L603.69 -55.5237L694.491 155.374L696.968 154.291L606.167 -56.6059Z" fill="#B3B3B3"/>
<path d="M605.248 -57.3853L604.842 -54.6964L903.202 -8.97033L903.608 -11.6592L605.248 -57.3853Z" fill="#B3B3B3"/>
<path d="M1091.94 259.368L1090.5 261.668L1356.07 430.636L1357.52 428.337L1091.94 259.368Z" fill="#B3B3B3"/>
<path d="M1355.33 429.026L1225.71 775.117L1228.24 776.077L1357.86 429.987L1355.33 429.026Z" fill="#B3B3B3"/>
<path d="M1023.89 645.055L1022.45 647.356L1226.06 776.669L1227.5 774.369L1023.89 645.055Z" fill="#B3B3B3"/>
<path d="M1355.91 428.364L1022.44 644.979L1023.9 647.264L1357.37 430.65L1355.91 428.364Z" fill="#B3B3B3"/>
<path d="M1092.52 260.302L1089.86 260.723L1127.86 505.367L1130.52 504.947L1092.52 260.302Z" fill="#B3B3B3"/>
<path d="M754.413 475.693L752.984 478.001L1022.55 647.37L1023.98 645.062L754.413 475.693Z" fill="#B3B3B3"/>
<path d="M754.998 476.627L752.333 477.066L811.853 843.922L814.517 843.483L754.998 476.627Z" fill="#B3B3B3"/>
<path d="M1022.37 645.245L812.153 842.516L813.993 844.506L1024.21 647.236L1022.37 645.245Z" fill="#B3B3B3"/>
<path d="M1024.64 645.859L1022 646.425L1078.15 912.167L1080.79 911.601L1024.64 645.859Z" fill="#B3B3B3"/>
<path d="M1225.95 774.599L1078.3 910.793L1080.12 912.799L1227.77 776.605L1225.95 774.599Z" fill="#B3B3B3"/>
<path d="M1064.3 1089.19L1061.9 1087.88L1225.7 774.883L1228.1 776.092L1064.3 1089.19Z" fill="#B3B3B3"/>
<path d="M1078.18 911.744L1061.82 1088.38L1064.51 1088.64L1080.87 911.997L1078.18 911.744Z" fill="#B3B3B3"/>
<path d="M813.499 842.388L812.833 845.024L1078.95 913.213L1079.61 910.577L813.499 842.388Z" fill="#B3B3B3"/>
<path d="M769.3 1066.22L768.1 1063.8L1078.8 910.679L1080 913.096L769.3 1066.22Z" fill="#B3B3B3"/>
<path d="M769.623 1064.19L767.444 1065.8L920.587 1276.57L922.765 1274.97L769.623 1064.19Z" fill="#B3B3B3"/>
<path d="M1061.81 1087.66L920.824 1275.16L922.976 1276.8L1063.96 1089.3L1061.81 1087.66Z" fill="#B3B3B3"/>
<path d="M768.865 1063.5L768.652 1066.21L1063.14 1089.76L1063.35 1087.05L768.865 1063.5Z" fill="#B3B3B3"/>
<path d="M812.107 843.375L767.242 1064.57L769.888 1065.11L814.753 843.92L812.107 843.375Z" fill="#B3B3B3"/>
<path d="M812.435 842.549L467.336 1052.58L468.732 1054.91L813.831 844.877L812.435 842.549Z" fill="#B3B3B3"/>
<path d="M768.6 1066.32L468 1054.94L468.1 1052.22L768.7 1063.6L768.6 1066.32Z" fill="#B3B3B3"/>
<path d="M767.472 1064.27L627.883 1293.43L630.184 1294.85L769.773 1065.69L767.472 1064.27Z" fill="#B3B3B3"/>
<path d="M629.2 1295.5L629 1292.78L921.7 1274.45L921.9 1277.07L629.2 1295.5Z" fill="#B3B3B3"/>
<path d="M297.154 1187.36L296.342 1189.95L628.646 1295.38L629.457 1292.79L297.154 1187.36Z" fill="#B3B3B3"/>
<path d="M297.6 1189.72L296 1187.61L467.2 1052.52L468.9 1054.63L297.6 1189.72Z" fill="#B3B3B3"/>
<path d="M628 1294.9L466.9 1054.33L469.2 1052.82L630.2 1293.39L628 1294.9Z" fill="#B3B3B3"/>
<path d="M295.8 1189.52L81.7 936.165L83.7 934.453L297.8 1187.81L295.8 1189.52Z" fill="#B3B3B3"/>
<path d="M82.8 936.669L82.6 933.949L336.5 911.686L336.8 914.406L82.8 936.669Z" fill="#B3B3B3"/>
<path d="M295.735 685.229L81.5824 934.42L83.6236 936.2L297.776 687.01L295.735 685.229Z" fill="#B3B3B3"/>
<path d="M107.21 490.998L80.9534 935.261L83.6485 935.423L109.905 491.16L107.21 490.998Z" fill="#B3B3B3"/>
<path d="M109.5 491.202L106.9 490.799L156.9 207.22L159.6 207.623L109.5 491.202Z" fill="#B3B3B3"/>
<path d="M159.039 206.236L157.696 208.596L375.984 334.641L377.327 332.281L159.039 206.236Z" fill="#B3B3B3"/>
<path d="M375.899 332.39L107.478 489.838L108.837 492.189L377.257 334.74L375.899 332.39Z" fill="#B3B3B3"/>
<path d="M109.086 490.005L107.152 491.904L295.724 686.85L297.658 684.952L109.086 490.005Z" fill="#B3B3B3"/>
<path d="M335.722 61.9683L157.373 206.347L159.064 208.468L337.413 64.0885L335.722 61.9683Z" fill="#B3B3B3"/>
<path d="M604.524 -57.3264L336.095 61.7467L337.183 64.236L605.612 -54.8372L604.524 -57.3264Z" fill="#B3B3B3"/>
<path d="M337.968 62.8675L335.297 63.2671L375.166 333.692L377.836 333.292L337.968 62.8675Z" fill="#B3B3B3"/>
<path d="M529.458 160.858L375.398 332.485L377.401 334.309L531.46 162.682L529.458 160.858Z" fill="#B3B3B3"/>
<path d="M336.959 61.696L336.295 64.3325L694.936 156.025L695.6 153.388L336.959 61.696Z" fill="#B3B3B3"/>
<path d="M376.99 332.166L376.037 334.711L753.178 478.056L754.131 475.512L376.99 332.166Z" fill="#B3B3B3"/>
<path d="M505.7 755.238L503.8 753.425L752.7 475.789L754.7 477.602L505.7 755.238Z" fill="#B3B3B3"/>
<path d="M504.3 755.642L296.3 687.24L297.2 684.722L505.2 753.123L504.3 755.642Z" fill="#B3B3B3"/>
<path d="M298.1 686.333L295.5 685.729L375.2 333.143L377.8 333.748L298.1 686.333Z" fill="#B3B3B3"/>
<path d="M377.781 333.105L375.225 333.981L443.09 534.713L445.646 533.836L377.781 333.105Z" fill="#B3B3B3"/>
<path d="M503.423 754.303L466.818 1053.55L469.498 1053.89L506.102 754.636L503.423 754.303Z" fill="#B3B3B3"/>
<path d="M298.096 685.786L295.438 686.26L335.312 913.323L337.971 912.849L298.096 685.786Z" fill="#B3B3B3"/>
<path d="M699.709 726.484L504.561 752.885L504.921 755.581L700.068 729.18L699.709 726.484Z" fill="#B3B3B3"/>
<path d="M904.169 -11.5749L902.713 -9.28424L1226.2 199.352L1227.66 197.062L904.169 -11.5749Z" fill="#B3B3B3"/>
<path d="M1226.39 197.167L1090.54 259.317L1091.66 261.794L1227.51 199.644L1226.39 197.167Z" fill="#B3B3B3"/>
<path d="M1228.03 197.477L1225.68 198.816L1355.5 430.036L1357.85 428.697L1228.03 197.477Z" fill="#B3B3B3"/>
<path d="M753.726 475.388L753.524 478.1L1128.97 506.474L1129.17 503.762L753.726 475.388Z" fill="#B3B3B3"/>
<path d="M1356.37 427.906L1128.89 504.066L1129.75 506.647L1357.22 430.488L1356.37 427.906Z" fill="#B3B3B3"/>
<path d="M1024.3 646.944L1022.2 645.333L1128.1 504.399L1130.2 506.011L1024.3 646.944Z" fill="#B3B3B3"/>
<path d="M922.6 1276.86L921 1274.65L1240.5 1058.16L1242.1 1060.38L922.6 1276.86Z" fill="#B3B3B3"/>
<path d="M1063.4 1089.79L1062.8 1087.17L1241 1057.96L1241.6 1060.58L1063.4 1089.79Z" fill="#B3B3B3"/>
<path d="M1240 1059.37L1225.6 775.588L1228.2 775.487L1242.6 1059.27L1240 1059.37Z" fill="#B3B3B3"/>
<path d="M1242.5 1059.87L1240.1 1058.76L1376.5 717.159L1379 718.267L1242.5 1059.87Z" fill="#B3B3B3"/>
<path d="M1358.06 429.331L1355.36 429.53L1376.41 717.769L1379.1 717.57L1358.06 429.331Z" fill="#B3B3B3"/>
<path d="M1227.4 776.797L1226.4 774.278L1377.3 716.454L1378.2 718.973L1227.4 776.797Z" fill="#B3B3B3"/>
<path d="M2.73027 538.272L0.0858154 538.822L81.29 935.646L83.9344 935.097L2.73027 538.272Z" fill="#B3B3B3"/>
<path d="M157.171 206.954L0.135132 537.872L2.57103 539.045L159.607 208.128L157.171 206.954Z" fill="#B3B3B3"/>
<path d="M107.507 489.754L0.876587 537.267L1.96874 539.754L108.599 492.241L107.507 489.754Z" fill="#B3B3B3"/>
<path d="M443.301 533.226L295.882 685.154L297.813 687.056L445.232 535.127L443.301 533.226Z" fill="#B3B3B3"/>
<path d="M445.652 533.83L443.049 534.554L503.397 754.684L506 753.96L445.652 533.83Z" fill="#B3B3B3"/>
<path d="M753.45 475.54L444.171 533.043L444.661 535.718L753.94 478.214L753.45 475.54Z" fill="#B3B3B3"/>
<path d="M696.507 153.467L695.141 155.813L868.935 258.546L870.301 256.2L696.507 153.467Z" fill="#B3B3B3"/>
<path d="M868.561 256.907L752.462 476.09L754.844 477.37L870.943 258.188L868.561 256.907Z" fill="#B3B3B3"/>
<path d="M869.577 256.176L869.541 258.895L1091.12 261.897L1091.16 259.177L869.577 256.176Z" fill="#B3B3B3"/>
<path d="M902.101 -10.6161L868.186 257.304L870.864 257.648L904.779 -10.2721L902.101 -10.6161Z" fill="#B3B3B3"/>
<path d="M83.0412 933.897L82.2542 936.499L467.668 1054.81L468.455 1052.21L83.0412 933.897Z" fill="#B3B3B3"/>
<path d="M337.696 912.093L335.73 913.957L467.141 1054.57L469.106 1052.7L337.696 912.093Z" fill="#B3B3B3"/>
<path d="M298.146 685.417L295.702 686.573L466.979 1054.2L469.423 1053.04L298.146 685.417Z" fill="#B3B3B3"/>
<path d="M700.722 726.725L698.797 728.632L812.144 844.656L814.068 842.748L700.722 726.725Z" fill="#B3B3B3"/>
<path d="M752.518 476.334L698.454 727.288L701.093 727.865L755.157 476.911L752.518 476.334Z" fill="#B3B3B3"/>
<path d="M505.157 752.938L504.411 755.552L812.924 844.9L813.67 842.286L505.157 752.938Z" fill="#B3B3B3"/>
<path d="M337.275 61.8398L336.057 64.2674L529.819 162.903L531.037 160.475L337.275 61.8398Z" fill="#B3B3B3"/>
<path d="M531.44 160.837L529.243 162.417L752.559 477.471L754.757 475.89L531.44 160.837Z" fill="#B3B3B3"/>
<path d="M695.722 153.477L530.354 160.253L530.464 162.971L695.832 156.195L695.722 153.477Z" fill="#B3B3B3"/>
</svg>
