<svg width="20" height="16" viewBox="0 0 20 16" fill="none" xmlns="http://www.w3.org/2000/svg">
    <path
      d="M19.6803 7.25276L12.4576 0.307091C12.2514 0.108826 11.9766 0 11.6836 0C11.3903 0 11.1157 0.108983 10.9095 0.307091L10.2537 0.937847C10.0477 1.1358 9.93423 1.4002 9.93423 1.68212C9.93423 1.96388 10.0477 2.2372 10.2537 2.43515L14.4674 6.49597H1.08048C0.476907 6.49597 0 6.95036 0 7.53092V8.42264C0 9.00321 0.476907 9.5034 1.08048 9.5034H14.5152L10.2539 13.5869C10.0479 13.7852 9.93439 14.0424 9.93439 14.3243C9.93439 14.6059 10.0479 14.8669 10.2539 15.065L10.9097 15.6937C11.1158 15.892 11.3905 16 11.6838 16C11.9768 16 12.2516 15.8905 12.4578 15.6923L19.6805 8.74677C19.8872 8.54788 20.0008 8.28239 20 8.00016C20.0006 7.71699 19.8872 7.45133 19.6803 7.25276Z"
      fill="#003832"/>
    <path
      d="M19.6803 7.25276L12.4576 0.307091C12.2514 0.108826 11.9766 0 11.6836 0C11.3903 0 11.1157 0.108983 10.9095 0.307091L10.2537 0.937847C10.0477 1.1358 9.93423 1.4002 9.93423 1.68212C9.93423 1.96388 10.0477 2.2372 10.2537 2.43515L14.4674 6.49597H1.08048C0.476907 6.49597 0 6.95036 0 7.53092V8.42264C0 9.00321 0.476907 9.5034 1.08048 9.5034H14.5152L10.2539 13.5869C10.0479 13.7852 9.93439 14.0424 9.93439 14.3243C9.93439 14.6059 10.0479 14.8669 10.2539 15.065L10.9097 15.6937C11.1158 15.892 11.3905 16 11.6838 16C11.9768 16 12.2516 15.8905 12.4578 15.6923L19.6805 8.74677C19.8872 8.54788 20.0008 8.28239 20 8.00016C20.0006 7.71699 19.8872 7.45133 19.6803 7.25276Z"
      fill="#00957E"/>
    <path
      d="M19.6803 7.25276L12.4576 0.307091C12.2514 0.108826 11.9766 0 11.6836 0C11.3903 0 11.1157 0.108983 10.9095 0.307091L10.2537 0.937847C10.0477 1.1358 9.93423 1.4002 9.93423 1.68212C9.93423 1.96388 10.0477 2.2372 10.2537 2.43515L14.4674 6.49597H1.08048C0.476907 6.49597 0 6.95036 0 7.53092V8.42264C0 9.00321 0.476907 9.5034 1.08048 9.5034H14.5152L10.2539 13.5869C10.0479 13.7852 9.93439 14.0424 9.93439 14.3243C9.93439 14.6059 10.0479 14.8669 10.2539 15.065L10.9097 15.6937C11.1158 15.892 11.3905 16 11.6838 16C11.9768 16 12.2516 15.8905 12.4578 15.6923L19.6805 8.74677C19.8872 8.54788 20.0008 8.28239 20 8.00016C20.0006 7.71699 19.8872 7.45133 19.6803 7.25276Z"
      fill="#008C95"/>
    <path
      d="M19.6803 7.25276L12.4576 0.307091C12.2514 0.108826 11.9766 0 11.6836 0C11.3903 0 11.1157 0.108983 10.9095 0.307091L10.2537 0.937847C10.0477 1.1358 9.93423 1.4002 9.93423 1.68212C9.93423 1.96388 10.0477 2.2372 10.2537 2.43515L14.4674 6.49597H1.08048C0.476907 6.49597 0 6.95036 0 7.53092V8.42264C0 9.00321 0.476907 9.5034 1.08048 9.5034H14.5152L10.2539 13.5869C10.0479 13.7852 9.93439 14.0424 9.93439 14.3243C9.93439 14.6059 10.0479 14.8669 10.2539 15.065L10.9097 15.6937C11.1158 15.892 11.3905 16 11.6838 16C11.9768 16 12.2516 15.8905 12.4578 15.6923L19.6805 8.74677C19.8872 8.54788 20.0008 8.28239 20 8.00016C20.0006 7.71699 19.8872 7.45133 19.6803 7.25276Z"
      fill="#24C9D3"/>
  </svg>