<svg aria-hidden="true" style="position: absolute; width: 0; height: 0; overflow: hidden;" version="1.1" xmlns="http://www.w3.org/2000/svg" xmlns:xlink="http://www.w3.org/1999/xlink">
<defs>
<symbol id="icon-antenna" viewBox="0 0 32 32">
<path fill="#212121" style="fill: var(--color1, #212121)" d="M30.773 22.098l-8.443-8.505 0.937-4.615c0.242 0.094 0.499 0.144 0.758 0.146h0.006c1.192 0.014 2.17-0.941 2.184-2.133s-0.941-2.17-2.133-2.184c-1.192-0.014-2.17 0.941-2.184 2.133-0.003 0.255 0.039 0.509 0.125 0.749l-4.96 0.605-8.091-8.133c-0.099-0.101-0.235-0.159-0.377-0.16-0.14 0.001-0.274 0.056-0.373 0.155l-1.513 1.504c-0.208 0.208-0.208 0.546 0 0.754l0.814 0.826c-3.153 5.798-2.129 12.978 2.519 17.663 0.043 0.041 0.092 0.074 0.146 0.098-0.034 0.18-0.051 0.364-0.052 0.547v6.187h-6.4c-1.472 0.002-2.665 1.195-2.667 2.667v1.067c0 0.295 0.239 0.533 0.533 0.533h24.533c0.295 0 0.533-0.239 0.533-0.533v-1.067c-0.002-1.472-1.195-2.665-2.667-2.667h-6.4v-2.742c1.003 0.21 2.024 0.317 3.049 0.32 2.458-0.003 4.877-0.615 7.040-1.783l0.818 0.823c0.099 0.101 0.235 0.159 0.377 0.16 0.14-0.001 0.274-0.056 0.373-0.155l1.513-1.504c0.208-0.208 0.208-0.546 0-0.754zM23.28 6.233c0.418-0.415 1.093-0.414 1.508 0.004s0.414 1.093-0.004 1.508c-0.2 0.199-0.47 0.31-0.752 0.31h-0.003c-0.589-0.003-1.064-0.483-1.061-1.072 0.002-0.282 0.115-0.552 0.314-0.751h-0.002zM22.024 9.738l-0.598 2.946-1.175-1.182 1.774-1.763zM21.419 8.836l-1.92 1.909-1.485-1.493 3.405-0.415zM24.004 28.8c0.884 0 1.6 0.716 1.6 1.6v0.533h-23.467v-0.533c0-0.884 0.716-1.6 1.6-1.6h20.267zM16.537 26.667v1.067h-5.333v-1.067h5.333zM11.204 25.6v-4.053c0-1.294 1.196-2.347 2.667-2.347s2.667 1.053 2.667 2.347v4.053h-5.333zM17.604 23.904v-2.357c0-1.882-1.675-3.413-3.733-3.413-1.331-0.020-2.576 0.657-3.281 1.786-4.058-4.274-4.971-10.645-2.279-15.887l18.602 18.708c-2.872 1.461-6.165 1.873-9.309 1.163zM28.893 23.22l-21.057-21.181 0.755-0.752 7.935 7.98c0.004 0 0.006 0.007 0.010 0.010l13.115 13.191-0.757 0.752z"></path>
<path fill="#2196f3" style="fill: var(--color2, #2196f3)" d="M13.876 20.267h-0.005c-0.884-0.001-1.601 0.714-1.602 1.598s0.714 1.601 1.598 1.602h0.005c0.884 0.001 1.601-0.714 1.602-1.598s-0.714-1.601-1.598-1.602zM14.249 22.245c-0.1 0.1-0.236 0.156-0.378 0.155-0.295-0.002-0.532-0.242-0.531-0.536 0.001-0.141 0.057-0.276 0.157-0.375s0.233-0.154 0.373-0.155c0.295 0.002 0.532 0.241 0.53 0.536-0.001 0.141-0.057 0.276-0.157 0.375h0.005z"></path>
</symbol>
<symbol id="logo" viewBox="0 0 34 32">
<path fill="#1b73ee" style="fill: var(--color1, #1b73ee)" d="M8.824 6.434c-0.558 1.078-0.991 2.246-1.261 3.451h-5.943c-0.9 0-1.621-0.719-1.621-1.617v-6.649c0-0.899 0.72-1.617 1.621-1.617h9.004c1.315 0 2.611 0.18 3.872 0.521-1.351 0.773-2.575 1.779-3.62 2.929-0.090 0-0.162 0-0.252 0h-7.491v2.965h5.691v0.018zM15.379 14.377v11.861h3.458v-11.861c0-2.48 2.089-4.493 4.646-4.493h9.004c0.901 0 1.621-0.719 1.621-1.617v-6.649c0-0.899-0.72-1.617-1.621-1.617h-9.004c-7.977 0-14.461 6.47-14.461 14.431v15.725c0 0.899 0.72 1.617 1.621 1.617h12.822c0.9 0 1.621-0.719 1.621-1.617v-17.989c-2.143 0.144-3.458 1.474-3.458 3.54v12.921h-9.148v-14.197c0-6.056 4.934-10.981 11.003-10.981h7.474v2.965h-7.474c-4.466 0.018-8.104 3.576-8.104 7.961z"></path>
</symbol>
<symbol id="icon-it" viewBox="0 0 55 32">
<path fill="#079247" style="fill: var(--color1, #079247)" d="M18.286 0h-18.286v32h18.286v-32z"></path>
<path fill="#fff" style="fill: var(--color2, #fff)" d="M36.571 0h-18.286v32h18.286v-32z"></path>
<path fill="#ce2b37" style="fill: var(--color3, #ce2b37)" d="M54.857 0h-18.286v32h18.286v-32z"></path>
</symbol>
<symbol id="icon-rus" viewBox="0 0 55 32">
<path fill="#fff" style="fill: var(--color2, #fff)" d="M54.857 0h-54.857v10.674h54.857v-10.674z"></path>
<path fill="#324095" style="fill: var(--color4, #324095)" d="M54.857 10.674h-54.857v10.674h54.857v-10.674z"></path>
<path fill="#d81f26" style="fill: var(--color5, #d81f26)" d="M54.857 21.326h-54.857v10.674h54.857v-10.674z"></path>
</symbol>
<symbol id="icon-arrow" viewBox="0 0 56 32">
<path stroke-linejoin="round" stroke-linecap="round" stroke-miterlimit="4" stroke-width="8" d="M4 4l24 24 24-24"></path>
</symbol>
</svg>


